<?xml version="1.0" encoding="utf-8" standalone="no"?>
<!DOCTYPE svg PUBLIC "-//W3C//DTD SVG 1.1//EN"
  "http://www.w3.org/Graphics/SVG/1.1/DTD/svg11.dtd">
<svg xmlns:xlink="http://www.w3.org/1999/xlink" width="1080pt" height="720pt" viewBox="0 0 1080 720" xmlns="http://www.w3.org/2000/svg" version="1.1">
 <metadata>
  <rdf:RDF xmlns:dc="http://purl.org/dc/elements/1.1/" xmlns:cc="http://creativecommons.org/ns#" xmlns:rdf="http://www.w3.org/1999/02/22-rdf-syntax-ns#">
   <cc:Work>
    <dc:type rdf:resource="http://purl.org/dc/dcmitype/StillImage"/>
    <dc:date>2025-06-29T06:06:20.747631</dc:date>
    <dc:format>image/svg+xml</dc:format>
    <dc:creator>
     <cc:Agent>
      <dc:title>Matplotlib v3.10.3, https://matplotlib.org/</dc:title>
     </cc:Agent>
    </dc:creator>
   </cc:Work>
  </rdf:RDF>
 </metadata>
 <defs>
  <style type="text/css">*{stroke-linejoin: round; stroke-linecap: butt}</style>
 </defs>
 <g id="figure_1">
  <g id="patch_1">
   <path d="M 0 720 
L 1080 720 
L 1080 0 
L 0 0 
z
" style="fill: #ffffff"/>
  </g>
  <g id="axes_1">
   <g id="LineCollection_1">
    <path d="M 597.27198 466.62361 
L 642.991083 482.507346 
" clip-path="url(#pe895896623)" style="fill: none; stroke: #000000; stroke-opacity: 0.2"/>
    <path d="M 597.27198 466.62361 
L 563.778274 505.875135 
" clip-path="url(#pe895896623)" style="fill: none; stroke: #000000; stroke-opacity: 0.2"/>
    <path d="M 597.27198 466.62361 
L 580.006557 484.842061 
" clip-path="url(#pe895896623)" style="fill: none; stroke: #000000; stroke-opacity: 0.2"/>
    <path d="M 597.27198 466.62361 
L 682.071776 462.190986 
" clip-path="url(#pe895896623)" style="fill: none; stroke: #000000; stroke-opacity: 0.2"/>
    <path d="M 597.27198 466.62361 
L 663.349785 433.053942 
" clip-path="url(#pe895896623)" style="fill: none; stroke: #000000; stroke-opacity: 0.2"/>
    <path d="M 597.27198 466.62361 
L 619.973455 478.843904 
" clip-path="url(#pe895896623)" style="fill: none; stroke: #000000; stroke-opacity: 0.2"/>
    <path d="M 597.27198 466.62361 
L 545.888474 497.398579 
" clip-path="url(#pe895896623)" style="fill: none; stroke: #000000; stroke-opacity: 0.2"/>
    <path d="M 597.27198 466.62361 
L 673.976643 450.775083 
" clip-path="url(#pe895896623)" style="fill: none; stroke: #000000; stroke-opacity: 0.2"/>
    <path d="M 597.27198 466.62361 
L 570.910713 466.836821 
" clip-path="url(#pe895896623)" style="fill: none; stroke: #000000; stroke-opacity: 0.2"/>
    <path d="M 597.27198 466.62361 
L 487.075652 476.93957 
" clip-path="url(#pe895896623)" style="fill: none; stroke: #000000; stroke-opacity: 0.2"/>
    <path d="M 597.27198 466.62361 
L 547.999636 473.196328 
" clip-path="url(#pe895896623)" style="fill: none; stroke: #000000; stroke-opacity: 0.2"/>
    <path d="M 642.991083 482.507346 
L 563.778274 505.875135 
" clip-path="url(#pe895896623)" style="fill: none; stroke: #000000; stroke-opacity: 0.2"/>
    <path d="M 642.991083 482.507346 
L 580.006557 484.842061 
" clip-path="url(#pe895896623)" style="fill: none; stroke: #000000; stroke-opacity: 0.2"/>
    <path d="M 642.991083 482.507346 
L 685.200645 471.308216 
" clip-path="url(#pe895896623)" style="fill: none; stroke: #000000; stroke-opacity: 0.2"/>
    <path d="M 642.991083 482.507346 
L 627.239242 505.374218 
" clip-path="url(#pe895896623)" style="fill: none; stroke: #000000; stroke-opacity: 0.2"/>
    <path d="M 642.991083 482.507346 
L 682.071776 462.190986 
" clip-path="url(#pe895896623)" style="fill: none; stroke: #000000; stroke-opacity: 0.2"/>
    <path d="M 642.991083 482.507346 
L 704.777719 467.744712 
" clip-path="url(#pe895896623)" style="fill: none; stroke: #000000; stroke-opacity: 0.2"/>
    <path d="M 642.991083 482.507346 
L 675.464649 493.029151 
" clip-path="url(#pe895896623)" style="fill: none; stroke: #000000; stroke-opacity: 0.2"/>
    <path d="M 642.991083 482.507346 
L 659.262508 492.268964 
" clip-path="url(#pe895896623)" style="fill: none; stroke: #000000; stroke-opacity: 0.2"/>
    <path d="M 642.991083 482.507346 
L 711.588693 481.688547 
" clip-path="url(#pe895896623)" style="fill: none; stroke: #000000; stroke-opacity: 0.2"/>
    <path d="M 563.778274 505.875135 
L 580.006557 484.842061 
" clip-path="url(#pe895896623)" style="fill: none; stroke: #000000; stroke-opacity: 0.2"/>
    <path d="M 563.778274 505.875135 
L 619.973455 478.843904 
" clip-path="url(#pe895896623)" style="fill: none; stroke: #000000; stroke-opacity: 0.2"/>
    <path d="M 563.778274 505.875135 
L 543.131331 569.993289 
" clip-path="url(#pe895896623)" style="fill: none; stroke: #000000; stroke-opacity: 0.2"/>
    <path d="M 563.778274 505.875135 
L 545.888474 497.398579 
" clip-path="url(#pe895896623)" style="fill: none; stroke: #000000; stroke-opacity: 0.2"/>
    <path d="M 563.778274 505.875135 
L 587.349092 532.23455 
" clip-path="url(#pe895896623)" style="fill: none; stroke: #000000; stroke-opacity: 0.2"/>
    <path d="M 563.778274 505.875135 
L 547.459809 563.17827 
" clip-path="url(#pe895896623)" style="fill: none; stroke: #000000; stroke-opacity: 0.2"/>
    <path d="M 563.778274 505.875135 
L 460.540279 473.439547 
" clip-path="url(#pe895896623)" style="fill: none; stroke: #000000; stroke-opacity: 0.2"/>
    <path d="M 563.778274 505.875135 
L 570.910713 466.836821 
" clip-path="url(#pe895896623)" style="fill: none; stroke: #000000; stroke-opacity: 0.2"/>
    <path d="M 580.006557 484.842061 
L 619.973455 478.843904 
" clip-path="url(#pe895896623)" style="fill: none; stroke: #000000; stroke-opacity: 0.2"/>
    <path d="M 580.006557 484.842061 
L 545.888474 497.398579 
" clip-path="url(#pe895896623)" style="fill: none; stroke: #000000; stroke-opacity: 0.2"/>
    <path d="M 580.006557 484.842061 
L 570.910713 466.836821 
" clip-path="url(#pe895896623)" style="fill: none; stroke: #000000; stroke-opacity: 0.2"/>
    <path d="M 580.006557 484.842061 
L 515.783186 490.840166 
" clip-path="url(#pe895896623)" style="fill: none; stroke: #000000; stroke-opacity: 0.2"/>
    <path d="M 682.071776 462.190986 
L 728.104888 439.100391 
" clip-path="url(#pe895896623)" style="fill: none; stroke: #000000; stroke-opacity: 0.2"/>
    <path d="M 682.071776 462.190986 
L 685.200645 471.308216 
" clip-path="url(#pe895896623)" style="fill: none; stroke: #000000; stroke-opacity: 0.2"/>
    <path d="M 682.071776 462.190986 
L 673.976643 450.775083 
" clip-path="url(#pe895896623)" style="fill: none; stroke: #000000; stroke-opacity: 0.2"/>
    <path d="M 682.071776 462.190986 
L 663.349785 433.053942 
" clip-path="url(#pe895896623)" style="fill: none; stroke: #000000; stroke-opacity: 0.2"/>
    <path d="M 682.071776 462.190986 
L 627.239242 505.374218 
" clip-path="url(#pe895896623)" style="fill: none; stroke: #000000; stroke-opacity: 0.2"/>
    <path d="M 682.071776 462.190986 
L 728.812467 463.356239 
" clip-path="url(#pe895896623)" style="fill: none; stroke: #000000; stroke-opacity: 0.2"/>
    <path d="M 682.071776 462.190986 
L 619.973455 478.843904 
" clip-path="url(#pe895896623)" style="fill: none; stroke: #000000; stroke-opacity: 0.2"/>
    <path d="M 682.071776 462.190986 
L 698.847787 439.7616 
" clip-path="url(#pe895896623)" style="fill: none; stroke: #000000; stroke-opacity: 0.2"/>
    <path d="M 682.071776 462.190986 
L 754.420979 436.963209 
" clip-path="url(#pe895896623)" style="fill: none; stroke: #000000; stroke-opacity: 0.2"/>
    <path d="M 682.071776 462.190986 
L 764.259033 450.376487 
" clip-path="url(#pe895896623)" style="fill: none; stroke: #000000; stroke-opacity: 0.2"/>
    <path d="M 682.071776 462.190986 
L 708.102991 494.097229 
" clip-path="url(#pe895896623)" style="fill: none; stroke: #000000; stroke-opacity: 0.2"/>
    <path d="M 682.071776 462.190986 
L 659.262508 492.268964 
" clip-path="url(#pe895896623)" style="fill: none; stroke: #000000; stroke-opacity: 0.2"/>
    <path d="M 663.349785 433.053942 
L 713.178691 447.392874 
" clip-path="url(#pe895896623)" style="fill: none; stroke: #000000; stroke-opacity: 0.2"/>
    <path d="M 663.349785 433.053942 
L 673.976643 450.775083 
" clip-path="url(#pe895896623)" style="fill: none; stroke: #000000; stroke-opacity: 0.2"/>
    <path d="M 663.349785 433.053942 
L 703.985034 427.599746 
" clip-path="url(#pe895896623)" style="fill: none; stroke: #000000; stroke-opacity: 0.2"/>
    <path d="M 663.349785 433.053942 
L 698.847787 439.7616 
" clip-path="url(#pe895896623)" style="fill: none; stroke: #000000; stroke-opacity: 0.2"/>
    <path d="M 619.973455 478.843904 
L 627.239242 505.374218 
" clip-path="url(#pe895896623)" style="fill: none; stroke: #000000; stroke-opacity: 0.2"/>
    <path d="M 619.973455 478.843904 
L 545.888474 497.398579 
" clip-path="url(#pe895896623)" style="fill: none; stroke: #000000; stroke-opacity: 0.2"/>
    <path d="M 619.973455 478.843904 
L 704.777719 467.744712 
" clip-path="url(#pe895896623)" style="fill: none; stroke: #000000; stroke-opacity: 0.2"/>
    <path d="M 619.973455 478.843904 
L 685.200645 471.308216 
" clip-path="url(#pe895896623)" style="fill: none; stroke: #000000; stroke-opacity: 0.2"/>
    <path d="M 619.973455 478.843904 
L 675.464649 493.029151 
" clip-path="url(#pe895896623)" style="fill: none; stroke: #000000; stroke-opacity: 0.2"/>
    <path d="M 619.973455 478.843904 
L 659.262508 492.268964 
" clip-path="url(#pe895896623)" style="fill: none; stroke: #000000; stroke-opacity: 0.2"/>
    <path d="M 619.973455 478.843904 
L 711.588693 481.688547 
" clip-path="url(#pe895896623)" style="fill: none; stroke: #000000; stroke-opacity: 0.2"/>
    <path d="M 619.973455 478.843904 
L 570.910713 466.836821 
" clip-path="url(#pe895896623)" style="fill: none; stroke: #000000; stroke-opacity: 0.2"/>
    <path d="M 619.973455 478.843904 
L 525.182183 470.377311 
" clip-path="url(#pe895896623)" style="fill: none; stroke: #000000; stroke-opacity: 0.2"/>
    <path d="M 619.973455 478.843904 
L 547.999636 473.196328 
" clip-path="url(#pe895896623)" style="fill: none; stroke: #000000; stroke-opacity: 0.2"/>
    <path d="M 545.888474 497.398579 
L 481.716979 494.019508 
" clip-path="url(#pe895896623)" style="fill: none; stroke: #000000; stroke-opacity: 0.2"/>
    <path d="M 545.888474 497.398579 
L 531.225011 542.250307 
" clip-path="url(#pe895896623)" style="fill: none; stroke: #000000; stroke-opacity: 0.2"/>
    <path d="M 545.888474 497.398579 
L 485.172022 508.344555 
" clip-path="url(#pe895896623)" style="fill: none; stroke: #000000; stroke-opacity: 0.2"/>
    <path d="M 627.239242 505.374218 
L 587.349092 532.23455 
" clip-path="url(#pe895896623)" style="fill: none; stroke: #000000; stroke-opacity: 0.2"/>
    <path d="M 627.239242 505.374218 
L 685.200645 471.308216 
" clip-path="url(#pe895896623)" style="fill: none; stroke: #000000; stroke-opacity: 0.2"/>
    <path d="M 627.239242 505.374218 
L 659.262508 492.268964 
" clip-path="url(#pe895896623)" style="fill: none; stroke: #000000; stroke-opacity: 0.2"/>
    <path d="M 627.239242 505.374218 
L 584.213222 548.749409 
" clip-path="url(#pe895896623)" style="fill: none; stroke: #000000; stroke-opacity: 0.2"/>
    <path d="M 627.239242 505.374218 
L 538.143411 519.53519 
" clip-path="url(#pe895896623)" style="fill: none; stroke: #000000; stroke-opacity: 0.2"/>
    <path d="M 627.239242 505.374218 
L 675.464649 493.029151 
" clip-path="url(#pe895896623)" style="fill: none; stroke: #000000; stroke-opacity: 0.2"/>
    <path d="M 543.131331 569.993289 
L 511.665771 592.690909 
" clip-path="url(#pe895896623)" style="fill: none; stroke: #000000; stroke-opacity: 0.2"/>
    <path d="M 543.131331 569.993289 
L 491.683259 550.074083 
" clip-path="url(#pe895896623)" style="fill: none; stroke: #000000; stroke-opacity: 0.2"/>
    <path d="M 543.131331 569.993289 
L 547.459809 563.17827 
" clip-path="url(#pe895896623)" style="fill: none; stroke: #000000; stroke-opacity: 0.2"/>
    <path d="M 543.131331 569.993289 
L 593.629255 575.888361 
" clip-path="url(#pe895896623)" style="fill: none; stroke: #000000; stroke-opacity: 0.2"/>
    <path d="M 543.131331 569.993289 
L 584.213222 548.749409 
" clip-path="url(#pe895896623)" style="fill: none; stroke: #000000; stroke-opacity: 0.2"/>
    <path d="M 587.349092 532.23455 
L 584.213222 548.749409 
" clip-path="url(#pe895896623)" style="fill: none; stroke: #000000; stroke-opacity: 0.2"/>
    <path d="M 587.349092 532.23455 
L 538.143411 519.53519 
" clip-path="url(#pe895896623)" style="fill: none; stroke: #000000; stroke-opacity: 0.2"/>
    <path d="M 584.213222 548.749409 
L 538.143411 519.53519 
" clip-path="url(#pe895896623)" style="fill: none; stroke: #000000; stroke-opacity: 0.2"/>
    <path d="M 538.143411 519.53519 
L 452.967913 498.27376 
" clip-path="url(#pe895896623)" style="fill: none; stroke: #000000; stroke-opacity: 0.2"/>
    <path d="M 538.143411 519.53519 
L 515.783186 490.840166 
" clip-path="url(#pe895896623)" style="fill: none; stroke: #000000; stroke-opacity: 0.2"/>
    <path d="M 538.143411 519.53519 
L 485.172022 508.344555 
" clip-path="url(#pe895896623)" style="fill: none; stroke: #000000; stroke-opacity: 0.2"/>
    <path d="M 511.665771 592.690909 
L 491.683259 550.074083 
" clip-path="url(#pe895896623)" style="fill: none; stroke: #000000; stroke-opacity: 0.2"/>
    <path d="M 511.665771 592.690909 
L 547.459809 563.17827 
" clip-path="url(#pe895896623)" style="fill: none; stroke: #000000; stroke-opacity: 0.2"/>
    <path d="M 491.683259 550.074083 
L 460.540279 473.439547 
" clip-path="url(#pe895896623)" style="fill: none; stroke: #000000; stroke-opacity: 0.2"/>
    <path d="M 491.683259 550.074083 
L 547.459809 563.17827 
" clip-path="url(#pe895896623)" style="fill: none; stroke: #000000; stroke-opacity: 0.2"/>
    <path d="M 547.459809 563.17827 
L 593.629255 575.888361 
" clip-path="url(#pe895896623)" style="fill: none; stroke: #000000; stroke-opacity: 0.2"/>
    <path d="M 547.459809 563.17827 
L 531.225011 542.250307 
" clip-path="url(#pe895896623)" style="fill: none; stroke: #000000; stroke-opacity: 0.2"/>
    <path d="M 460.540279 473.439547 
L 481.716979 494.019508 
" clip-path="url(#pe895896623)" style="fill: none; stroke: #000000; stroke-opacity: 0.2"/>
    <path d="M 460.540279 473.439547 
L 361.294894 394.849152 
" clip-path="url(#pe895896623)" style="fill: none; stroke: #000000; stroke-opacity: 0.2"/>
    <path d="M 460.540279 473.439547 
L 452.967913 498.27376 
" clip-path="url(#pe895896623)" style="fill: none; stroke: #000000; stroke-opacity: 0.2"/>
    <path d="M 460.540279 473.439547 
L 525.182183 470.377311 
" clip-path="url(#pe895896623)" style="fill: none; stroke: #000000; stroke-opacity: 0.2"/>
    <path d="M 593.629255 575.888361 
L 676.004348 556.244984 
" clip-path="url(#pe895896623)" style="fill: none; stroke: #000000; stroke-opacity: 0.2"/>
    <path d="M 593.629255 575.888361 
L 531.225011 542.250307 
" clip-path="url(#pe895896623)" style="fill: none; stroke: #000000; stroke-opacity: 0.2"/>
    <path d="M 361.294894 394.849152 
L 267.886836 407.722051 
" clip-path="url(#pe895896623)" style="fill: none; stroke: #000000; stroke-opacity: 0.2"/>
    <path d="M 361.294894 394.849152 
L 325.858594 349.464255 
" clip-path="url(#pe895896623)" style="fill: none; stroke: #000000; stroke-opacity: 0.2"/>
    <path d="M 361.294894 394.849152 
L 337.007903 340.707488 
" clip-path="url(#pe895896623)" style="fill: none; stroke: #000000; stroke-opacity: 0.2"/>
    <path d="M 361.294894 394.849152 
L 351.816485 344.353617 
" clip-path="url(#pe895896623)" style="fill: none; stroke: #000000; stroke-opacity: 0.2"/>
    <path d="M 267.886836 407.722051 
L 216.702196 398.561688 
" clip-path="url(#pe895896623)" style="fill: none; stroke: #000000; stroke-opacity: 0.2"/>
    <path d="M 267.886836 407.722051 
L 240.119282 414.922378 
" clip-path="url(#pe895896623)" style="fill: none; stroke: #000000; stroke-opacity: 0.2"/>
    <path d="M 267.886836 407.722051 
L 234.649031 426.032922 
" clip-path="url(#pe895896623)" style="fill: none; stroke: #000000; stroke-opacity: 0.2"/>
    <path d="M 267.886836 407.722051 
L 297.678879 439.171267 
" clip-path="url(#pe895896623)" style="fill: none; stroke: #000000; stroke-opacity: 0.2"/>
    <path d="M 267.886836 407.722051 
L 207.632231 411.706632 
" clip-path="url(#pe895896623)" style="fill: none; stroke: #000000; stroke-opacity: 0.2"/>
    <path d="M 325.858594 349.464255 
L 337.007903 340.707488 
" clip-path="url(#pe895896623)" style="fill: none; stroke: #000000; stroke-opacity: 0.2"/>
    <path d="M 325.858594 349.464255 
L 328.992241 314.631335 
" clip-path="url(#pe895896623)" style="fill: none; stroke: #000000; stroke-opacity: 0.2"/>
    <path d="M 325.858594 349.464255 
L 351.816485 344.353617 
" clip-path="url(#pe895896623)" style="fill: none; stroke: #000000; stroke-opacity: 0.2"/>
    <path d="M 337.007903 340.707488 
L 328.992241 314.631335 
" clip-path="url(#pe895896623)" style="fill: none; stroke: #000000; stroke-opacity: 0.2"/>
    <path d="M 337.007903 340.707488 
L 351.816485 344.353617 
" clip-path="url(#pe895896623)" style="fill: none; stroke: #000000; stroke-opacity: 0.2"/>
    <path d="M 216.702196 398.561688 
L 240.119282 414.922378 
" clip-path="url(#pe895896623)" style="fill: none; stroke: #000000; stroke-opacity: 0.2"/>
    <path d="M 216.702196 398.561688 
L 207.632231 411.706632 
" clip-path="url(#pe895896623)" style="fill: none; stroke: #000000; stroke-opacity: 0.2"/>
    <path d="M 216.702196 398.561688 
L 234.649031 426.032922 
" clip-path="url(#pe895896623)" style="fill: none; stroke: #000000; stroke-opacity: 0.2"/>
    <path d="M 240.119282 414.922378 
L 207.632231 411.706632 
" clip-path="url(#pe895896623)" style="fill: none; stroke: #000000; stroke-opacity: 0.2"/>
    <path d="M 240.119282 414.922378 
L 234.649031 426.032922 
" clip-path="url(#pe895896623)" style="fill: none; stroke: #000000; stroke-opacity: 0.2"/>
    <path d="M 240.119282 414.922378 
L 297.678879 439.171267 
" clip-path="url(#pe895896623)" style="fill: none; stroke: #000000; stroke-opacity: 0.2"/>
    <path d="M 234.649031 426.032922 
L 297.678879 439.171267 
" clip-path="url(#pe895896623)" style="fill: none; stroke: #000000; stroke-opacity: 0.2"/>
    <path d="M 234.649031 426.032922 
L 207.632231 411.706632 
" clip-path="url(#pe895896623)" style="fill: none; stroke: #000000; stroke-opacity: 0.2"/>
    <path d="M 351.816485 344.353617 
L 328.992241 314.631335 
" clip-path="url(#pe895896623)" style="fill: none; stroke: #000000; stroke-opacity: 0.2"/>
    <path d="M 297.678879 439.171267 
L 402.822927 470.731043 
" clip-path="url(#pe895896623)" style="fill: none; stroke: #000000; stroke-opacity: 0.2"/>
    <path d="M 402.822927 470.731043 
L 481.716979 494.019508 
" clip-path="url(#pe895896623)" style="fill: none; stroke: #000000; stroke-opacity: 0.2"/>
    <path d="M 402.822927 470.731043 
L 487.075652 476.93957 
" clip-path="url(#pe895896623)" style="fill: none; stroke: #000000; stroke-opacity: 0.2"/>
    <path d="M 402.822927 470.731043 
L 452.967913 498.27376 
" clip-path="url(#pe895896623)" style="fill: none; stroke: #000000; stroke-opacity: 0.2"/>
    <path d="M 481.716979 494.019508 
L 531.225011 542.250307 
" clip-path="url(#pe895896623)" style="fill: none; stroke: #000000; stroke-opacity: 0.2"/>
    <path d="M 481.716979 494.019508 
L 487.075652 476.93957 
" clip-path="url(#pe895896623)" style="fill: none; stroke: #000000; stroke-opacity: 0.2"/>
    <path d="M 481.716979 494.019508 
L 452.967913 498.27376 
" clip-path="url(#pe895896623)" style="fill: none; stroke: #000000; stroke-opacity: 0.2"/>
    <path d="M 481.716979 494.019508 
L 515.783186 490.840166 
" clip-path="url(#pe895896623)" style="fill: none; stroke: #000000; stroke-opacity: 0.2"/>
    <path d="M 481.716979 494.019508 
L 525.182183 470.377311 
" clip-path="url(#pe895896623)" style="fill: none; stroke: #000000; stroke-opacity: 0.2"/>
    <path d="M 754.420979 436.963209 
L 713.178691 447.392874 
" clip-path="url(#pe895896623)" style="fill: none; stroke: #000000; stroke-opacity: 0.2"/>
    <path d="M 754.420979 436.963209 
L 728.104888 439.100391 
" clip-path="url(#pe895896623)" style="fill: none; stroke: #000000; stroke-opacity: 0.2"/>
    <path d="M 754.420979 436.963209 
L 777.949975 465.549777 
" clip-path="url(#pe895896623)" style="fill: none; stroke: #000000; stroke-opacity: 0.2"/>
    <path d="M 754.420979 436.963209 
L 764.259033 450.376487 
" clip-path="url(#pe895896623)" style="fill: none; stroke: #000000; stroke-opacity: 0.2"/>
    <path d="M 713.178691 447.392874 
L 708.102991 494.097229 
" clip-path="url(#pe895896623)" style="fill: none; stroke: #000000; stroke-opacity: 0.2"/>
    <path d="M 713.178691 447.392874 
L 728.104888 439.100391 
" clip-path="url(#pe895896623)" style="fill: none; stroke: #000000; stroke-opacity: 0.2"/>
    <path d="M 713.178691 447.392874 
L 685.200645 471.308216 
" clip-path="url(#pe895896623)" style="fill: none; stroke: #000000; stroke-opacity: 0.2"/>
    <path d="M 713.178691 447.392874 
L 698.847787 439.7616 
" clip-path="url(#pe895896623)" style="fill: none; stroke: #000000; stroke-opacity: 0.2"/>
    <path d="M 713.178691 447.392874 
L 673.976643 450.775083 
" clip-path="url(#pe895896623)" style="fill: none; stroke: #000000; stroke-opacity: 0.2"/>
    <path d="M 713.178691 447.392874 
L 704.777719 467.744712 
" clip-path="url(#pe895896623)" style="fill: none; stroke: #000000; stroke-opacity: 0.2"/>
    <path d="M 713.178691 447.392874 
L 703.985034 427.599746 
" clip-path="url(#pe895896623)" style="fill: none; stroke: #000000; stroke-opacity: 0.2"/>
    <path d="M 728.104888 439.100391 
L 704.777719 467.744712 
" clip-path="url(#pe895896623)" style="fill: none; stroke: #000000; stroke-opacity: 0.2"/>
    <path d="M 728.104888 439.100391 
L 685.200645 471.308216 
" clip-path="url(#pe895896623)" style="fill: none; stroke: #000000; stroke-opacity: 0.2"/>
    <path d="M 777.949975 465.549777 
L 764.259033 450.376487 
" clip-path="url(#pe895896623)" style="fill: none; stroke: #000000; stroke-opacity: 0.2"/>
    <path d="M 777.949975 465.549777 
L 711.588693 481.688547 
" clip-path="url(#pe895896623)" style="fill: none; stroke: #000000; stroke-opacity: 0.2"/>
    <path d="M 777.949975 465.549777 
L 728.812467 463.356239 
" clip-path="url(#pe895896623)" style="fill: none; stroke: #000000; stroke-opacity: 0.2"/>
    <path d="M 777.949975 465.549777 
L 770.409339 487.220009 
" clip-path="url(#pe895896623)" style="fill: none; stroke: #000000; stroke-opacity: 0.2"/>
    <path d="M 764.259033 450.376487 
L 728.812467 463.356239 
" clip-path="url(#pe895896623)" style="fill: none; stroke: #000000; stroke-opacity: 0.2"/>
    <path d="M 743.43012 487.955388 
L 704.777719 467.744712 
" clip-path="url(#pe895896623)" style="fill: none; stroke: #000000; stroke-opacity: 0.2"/>
    <path d="M 743.43012 487.955388 
L 708.102991 494.097229 
" clip-path="url(#pe895896623)" style="fill: none; stroke: #000000; stroke-opacity: 0.2"/>
    <path d="M 743.43012 487.955388 
L 685.200645 471.308216 
" clip-path="url(#pe895896623)" style="fill: none; stroke: #000000; stroke-opacity: 0.2"/>
    <path d="M 704.777719 467.744712 
L 673.976643 450.775083 
" clip-path="url(#pe895896623)" style="fill: none; stroke: #000000; stroke-opacity: 0.2"/>
    <path d="M 704.777719 467.744712 
L 698.847787 439.7616 
" clip-path="url(#pe895896623)" style="fill: none; stroke: #000000; stroke-opacity: 0.2"/>
    <path d="M 704.777719 467.744712 
L 728.812467 463.356239 
" clip-path="url(#pe895896623)" style="fill: none; stroke: #000000; stroke-opacity: 0.2"/>
    <path d="M 704.777719 467.744712 
L 770.409339 487.220009 
" clip-path="url(#pe895896623)" style="fill: none; stroke: #000000; stroke-opacity: 0.2"/>
    <path d="M 708.102991 494.097229 
L 676.004348 556.244984 
" clip-path="url(#pe895896623)" style="fill: none; stroke: #000000; stroke-opacity: 0.2"/>
    <path d="M 708.102991 494.097229 
L 685.200645 471.308216 
" clip-path="url(#pe895896623)" style="fill: none; stroke: #000000; stroke-opacity: 0.2"/>
    <path d="M 708.102991 494.097229 
L 673.976643 450.775083 
" clip-path="url(#pe895896623)" style="fill: none; stroke: #000000; stroke-opacity: 0.2"/>
    <path d="M 708.102991 494.097229 
L 728.812467 463.356239 
" clip-path="url(#pe895896623)" style="fill: none; stroke: #000000; stroke-opacity: 0.2"/>
    <path d="M 685.200645 471.308216 
L 673.976643 450.775083 
" clip-path="url(#pe895896623)" style="fill: none; stroke: #000000; stroke-opacity: 0.2"/>
    <path d="M 685.200645 471.308216 
L 659.262508 492.268964 
" clip-path="url(#pe895896623)" style="fill: none; stroke: #000000; stroke-opacity: 0.2"/>
    <path d="M 685.200645 471.308216 
L 698.847787 439.7616 
" clip-path="url(#pe895896623)" style="fill: none; stroke: #000000; stroke-opacity: 0.2"/>
    <path d="M 685.200645 471.308216 
L 675.464649 493.029151 
" clip-path="url(#pe895896623)" style="fill: none; stroke: #000000; stroke-opacity: 0.2"/>
    <path d="M 685.200645 471.308216 
L 711.588693 481.688547 
" clip-path="url(#pe895896623)" style="fill: none; stroke: #000000; stroke-opacity: 0.2"/>
    <path d="M 685.200645 471.308216 
L 703.985034 427.599746 
" clip-path="url(#pe895896623)" style="fill: none; stroke: #000000; stroke-opacity: 0.2"/>
    <path d="M 675.464649 493.029151 
L 659.262508 492.268964 
" clip-path="url(#pe895896623)" style="fill: none; stroke: #000000; stroke-opacity: 0.2"/>
    <path d="M 675.464649 493.029151 
L 728.812467 463.356239 
" clip-path="url(#pe895896623)" style="fill: none; stroke: #000000; stroke-opacity: 0.2"/>
    <path d="M 728.812467 463.356239 
L 711.588693 481.688547 
" clip-path="url(#pe895896623)" style="fill: none; stroke: #000000; stroke-opacity: 0.2"/>
    <path d="M 728.812467 463.356239 
L 698.847787 439.7616 
" clip-path="url(#pe895896623)" style="fill: none; stroke: #000000; stroke-opacity: 0.2"/>
    <path d="M 728.812467 463.356239 
L 703.985034 427.599746 
" clip-path="url(#pe895896623)" style="fill: none; stroke: #000000; stroke-opacity: 0.2"/>
    <path d="M 673.976643 450.775083 
L 698.847787 439.7616 
" clip-path="url(#pe895896623)" style="fill: none; stroke: #000000; stroke-opacity: 0.2"/>
    <path d="M 673.976643 450.775083 
L 703.985034 427.599746 
" clip-path="url(#pe895896623)" style="fill: none; stroke: #000000; stroke-opacity: 0.2"/>
    <path d="M 698.847787 439.7616 
L 703.985034 427.599746 
" clip-path="url(#pe895896623)" style="fill: none; stroke: #000000; stroke-opacity: 0.2"/>
    <path d="M 711.588693 481.688547 
L 770.409339 487.220009 
" clip-path="url(#pe895896623)" style="fill: none; stroke: #000000; stroke-opacity: 0.2"/>
    <path d="M 416.977384 532.616923 
L 430.826546 508.121859 
" clip-path="url(#pe895896623)" style="fill: none; stroke: #000000; stroke-opacity: 0.2"/>
    <path d="M 416.977384 532.616923 
L 485.172022 508.344555 
" clip-path="url(#pe895896623)" style="fill: none; stroke: #000000; stroke-opacity: 0.2"/>
    <path d="M 430.826546 508.121859 
L 485.172022 508.344555 
" clip-path="url(#pe895896623)" style="fill: none; stroke: #000000; stroke-opacity: 0.2"/>
    <path d="M 430.826546 508.121859 
L 487.075652 476.93957 
" clip-path="url(#pe895896623)" style="fill: none; stroke: #000000; stroke-opacity: 0.2"/>
    <path d="M 485.172022 508.344555 
L 487.075652 476.93957 
" clip-path="url(#pe895896623)" style="fill: none; stroke: #000000; stroke-opacity: 0.2"/>
    <path d="M 485.172022 508.344555 
L 547.999636 473.196328 
" clip-path="url(#pe895896623)" style="fill: none; stroke: #000000; stroke-opacity: 0.2"/>
    <path d="M 570.910713 466.836821 
L 525.182183 470.377311 
" clip-path="url(#pe895896623)" style="fill: none; stroke: #000000; stroke-opacity: 0.2"/>
    <path d="M 487.075652 476.93957 
L 515.783186 490.840166 
" clip-path="url(#pe895896623)" style="fill: none; stroke: #000000; stroke-opacity: 0.2"/>
    <path d="M 487.075652 476.93957 
L 525.182183 470.377311 
" clip-path="url(#pe895896623)" style="fill: none; stroke: #000000; stroke-opacity: 0.2"/>
    <path d="M 515.783186 490.840166 
L 525.182183 470.377311 
" clip-path="url(#pe895896623)" style="fill: none; stroke: #000000; stroke-opacity: 0.2"/>
    <path d="M 525.182183 470.377311 
L 547.999636 473.196328 
" clip-path="url(#pe895896623)" style="fill: none; stroke: #000000; stroke-opacity: 0.2"/>
    <path d="M 899.367769 147.357249 
L 876.675514 135.995168 
" clip-path="url(#pe895896623)" style="fill: none; stroke: #000000; stroke-opacity: 0.2"/>
    <path d="M 899.367769 147.357249 
L 864.121111 168.043579 
" clip-path="url(#pe895896623)" style="fill: none; stroke: #000000; stroke-opacity: 0.2"/>
    <path d="M 899.367769 147.357249 
L 894.810124 158.296157 
" clip-path="url(#pe895896623)" style="fill: none; stroke: #000000; stroke-opacity: 0.2"/>
    <path d="M 899.367769 147.357249 
L 894.863655 134.509091 
" clip-path="url(#pe895896623)" style="fill: none; stroke: #000000; stroke-opacity: 0.2"/>
    <path d="M 899.367769 147.357249 
L 876.686329 154.033498 
" clip-path="url(#pe895896623)" style="fill: none; stroke: #000000; stroke-opacity: 0.2"/>
    <path d="M 899.367769 147.357249 
L 864.33191 143.807244 
" clip-path="url(#pe895896623)" style="fill: none; stroke: #000000; stroke-opacity: 0.2"/>
    <path d="M 876.675514 135.995168 
L 864.121111 168.043579 
" clip-path="url(#pe895896623)" style="fill: none; stroke: #000000; stroke-opacity: 0.2"/>
    <path d="M 876.675514 135.995168 
L 894.810124 158.296157 
" clip-path="url(#pe895896623)" style="fill: none; stroke: #000000; stroke-opacity: 0.2"/>
    <path d="M 876.675514 135.995168 
L 894.863655 134.509091 
" clip-path="url(#pe895896623)" style="fill: none; stroke: #000000; stroke-opacity: 0.2"/>
    <path d="M 876.675514 135.995168 
L 876.686329 154.033498 
" clip-path="url(#pe895896623)" style="fill: none; stroke: #000000; stroke-opacity: 0.2"/>
    <path d="M 876.675514 135.995168 
L 864.33191 143.807244 
" clip-path="url(#pe895896623)" style="fill: none; stroke: #000000; stroke-opacity: 0.2"/>
    <path d="M 864.121111 168.043579 
L 894.810124 158.296157 
" clip-path="url(#pe895896623)" style="fill: none; stroke: #000000; stroke-opacity: 0.2"/>
    <path d="M 864.121111 168.043579 
L 894.863655 134.509091 
" clip-path="url(#pe895896623)" style="fill: none; stroke: #000000; stroke-opacity: 0.2"/>
    <path d="M 864.121111 168.043579 
L 876.686329 154.033498 
" clip-path="url(#pe895896623)" style="fill: none; stroke: #000000; stroke-opacity: 0.2"/>
    <path d="M 864.121111 168.043579 
L 864.33191 143.807244 
" clip-path="url(#pe895896623)" style="fill: none; stroke: #000000; stroke-opacity: 0.2"/>
    <path d="M 894.810124 158.296157 
L 894.863655 134.509091 
" clip-path="url(#pe895896623)" style="fill: none; stroke: #000000; stroke-opacity: 0.2"/>
    <path d="M 894.810124 158.296157 
L 876.686329 154.033498 
" clip-path="url(#pe895896623)" style="fill: none; stroke: #000000; stroke-opacity: 0.2"/>
    <path d="M 894.810124 158.296157 
L 864.33191 143.807244 
" clip-path="url(#pe895896623)" style="fill: none; stroke: #000000; stroke-opacity: 0.2"/>
    <path d="M 894.863655 134.509091 
L 876.686329 154.033498 
" clip-path="url(#pe895896623)" style="fill: none; stroke: #000000; stroke-opacity: 0.2"/>
    <path d="M 894.863655 134.509091 
L 864.33191 143.807244 
" clip-path="url(#pe895896623)" style="fill: none; stroke: #000000; stroke-opacity: 0.2"/>
    <path d="M 876.686329 154.033498 
L 864.33191 143.807244 
" clip-path="url(#pe895896623)" style="fill: none; stroke: #000000; stroke-opacity: 0.2"/>
   </g>
   <g id="PathCollection_1">
    <defs>
     <path id="mb0cd1d8c9a" d="M 0 5 
C 1.326016 5 2.597899 4.473168 3.535534 3.535534 
C 4.473168 2.597899 5 1.326016 5 0 
C 5 -1.326016 4.473168 -2.597899 3.535534 -3.535534 
C 2.597899 -4.473168 1.326016 -5 0 -5 
C -1.326016 -5 -2.597899 -4.473168 -3.535534 -3.535534 
C -4.473168 -2.597899 -5 -1.326016 -5 0 
C -5 1.326016 -4.473168 2.597899 -3.535534 3.535534 
C -2.597899 4.473168 -1.326016 5 0 5 
z
" style="stroke: #2ca02c; stroke-opacity: 0.8"/>
    </defs>
    <g clip-path="url(#pe895896623)">
     <use xlink:href="#mb0cd1d8c9a" x="597.27198" y="466.62361" style="fill: #2ca02c; fill-opacity: 0.8; stroke: #2ca02c; stroke-opacity: 0.8"/>
     <use xlink:href="#mb0cd1d8c9a" x="563.778274" y="505.875135" style="fill: #2ca02c; fill-opacity: 0.8; stroke: #2ca02c; stroke-opacity: 0.8"/>
     <use xlink:href="#mb0cd1d8c9a" x="580.006557" y="484.842061" style="fill: #2ca02c; fill-opacity: 0.8; stroke: #2ca02c; stroke-opacity: 0.8"/>
     <use xlink:href="#mb0cd1d8c9a" x="619.973455" y="478.843904" style="fill: #2ca02c; fill-opacity: 0.8; stroke: #2ca02c; stroke-opacity: 0.8"/>
     <use xlink:href="#mb0cd1d8c9a" x="545.888474" y="497.398579" style="fill: #2ca02c; fill-opacity: 0.8; stroke: #2ca02c; stroke-opacity: 0.8"/>
     <use xlink:href="#mb0cd1d8c9a" x="460.540279" y="473.439547" style="fill: #2ca02c; fill-opacity: 0.8; stroke: #2ca02c; stroke-opacity: 0.8"/>
     <use xlink:href="#mb0cd1d8c9a" x="402.822927" y="470.731043" style="fill: #2ca02c; fill-opacity: 0.8; stroke: #2ca02c; stroke-opacity: 0.8"/>
     <use xlink:href="#mb0cd1d8c9a" x="481.716979" y="494.019508" style="fill: #2ca02c; fill-opacity: 0.8; stroke: #2ca02c; stroke-opacity: 0.8"/>
     <use xlink:href="#mb0cd1d8c9a" x="452.967913" y="498.27376" style="fill: #2ca02c; fill-opacity: 0.8; stroke: #2ca02c; stroke-opacity: 0.8"/>
     <use xlink:href="#mb0cd1d8c9a" x="416.977384" y="532.616923" style="fill: #2ca02c; fill-opacity: 0.8; stroke: #2ca02c; stroke-opacity: 0.8"/>
     <use xlink:href="#mb0cd1d8c9a" x="430.826546" y="508.121859" style="fill: #2ca02c; fill-opacity: 0.8; stroke: #2ca02c; stroke-opacity: 0.8"/>
     <use xlink:href="#mb0cd1d8c9a" x="485.172022" y="508.344555" style="fill: #2ca02c; fill-opacity: 0.8; stroke: #2ca02c; stroke-opacity: 0.8"/>
     <use xlink:href="#mb0cd1d8c9a" x="570.910713" y="466.836821" style="fill: #2ca02c; fill-opacity: 0.8; stroke: #2ca02c; stroke-opacity: 0.8"/>
     <use xlink:href="#mb0cd1d8c9a" x="487.075652" y="476.93957" style="fill: #2ca02c; fill-opacity: 0.8; stroke: #2ca02c; stroke-opacity: 0.8"/>
     <use xlink:href="#mb0cd1d8c9a" x="515.783186" y="490.840166" style="fill: #2ca02c; fill-opacity: 0.8; stroke: #2ca02c; stroke-opacity: 0.8"/>
     <use xlink:href="#mb0cd1d8c9a" x="525.182183" y="470.377311" style="fill: #2ca02c; fill-opacity: 0.8; stroke: #2ca02c; stroke-opacity: 0.8"/>
     <use xlink:href="#mb0cd1d8c9a" x="547.999636" y="473.196328" style="fill: #2ca02c; fill-opacity: 0.8; stroke: #2ca02c; stroke-opacity: 0.8"/>
    </g>
   </g>
   <g id="PathCollection_2">
    <defs>
     <path id="m9a1487bfa4" d="M 0 5 
C 1.326016 5 2.597899 4.473168 3.535534 3.535534 
C 4.473168 2.597899 5 1.326016 5 0 
C 5 -1.326016 4.473168 -2.597899 3.535534 -3.535534 
C 2.597899 -4.473168 1.326016 -5 0 -5 
C -1.326016 -5 -2.597899 -4.473168 -3.535534 -3.535534 
C -4.473168 -2.597899 -5 -1.326016 -5 0 
C -5 1.326016 -4.473168 2.597899 -3.535534 3.535534 
C -2.597899 4.473168 -1.326016 5 0 5 
z
" style="stroke: #aec7e8; stroke-opacity: 0.8"/>
    </defs>
    <g clip-path="url(#pe895896623)">
     <use xlink:href="#m9a1487bfa4" x="642.991083" y="482.507346" style="fill: #aec7e8; fill-opacity: 0.8; stroke: #aec7e8; stroke-opacity: 0.8"/>
     <use xlink:href="#m9a1487bfa4" x="627.239242" y="505.374218" style="fill: #aec7e8; fill-opacity: 0.8; stroke: #aec7e8; stroke-opacity: 0.8"/>
     <use xlink:href="#m9a1487bfa4" x="587.349092" y="532.23455" style="fill: #aec7e8; fill-opacity: 0.8; stroke: #aec7e8; stroke-opacity: 0.8"/>
     <use xlink:href="#m9a1487bfa4" x="584.213222" y="548.749409" style="fill: #aec7e8; fill-opacity: 0.8; stroke: #aec7e8; stroke-opacity: 0.8"/>
     <use xlink:href="#m9a1487bfa4" x="538.143411" y="519.53519" style="fill: #aec7e8; fill-opacity: 0.8; stroke: #aec7e8; stroke-opacity: 0.8"/>
     <use xlink:href="#m9a1487bfa4" x="675.464649" y="493.029151" style="fill: #aec7e8; fill-opacity: 0.8; stroke: #aec7e8; stroke-opacity: 0.8"/>
     <use xlink:href="#m9a1487bfa4" x="659.262508" y="492.268964" style="fill: #aec7e8; fill-opacity: 0.8; stroke: #aec7e8; stroke-opacity: 0.8"/>
    </g>
   </g>
   <g id="PathCollection_3">
    <defs>
     <path id="m8cb1b1f0bd" d="M 0 5 
C 1.326016 5 2.597899 4.473168 3.535534 3.535534 
C 4.473168 2.597899 5 1.326016 5 0 
C 5 -1.326016 4.473168 -2.597899 3.535534 -3.535534 
C 2.597899 -4.473168 1.326016 -5 0 -5 
C -1.326016 -5 -2.597899 -4.473168 -3.535534 -3.535534 
C -4.473168 -2.597899 -5 -1.326016 -5 0 
C -5 1.326016 -4.473168 2.597899 -3.535534 3.535534 
C -2.597899 4.473168 -1.326016 5 0 5 
z
" style="stroke: #ffbb78; stroke-opacity: 0.8"/>
    </defs>
    <g clip-path="url(#pe895896623)">
     <use xlink:href="#m8cb1b1f0bd" x="682.071776" y="462.190986" style="fill: #ffbb78; fill-opacity: 0.8; stroke: #ffbb78; stroke-opacity: 0.8"/>
     <use xlink:href="#m8cb1b1f0bd" x="663.349785" y="433.053942" style="fill: #ffbb78; fill-opacity: 0.8; stroke: #ffbb78; stroke-opacity: 0.8"/>
     <use xlink:href="#m8cb1b1f0bd" x="754.420979" y="436.963209" style="fill: #ffbb78; fill-opacity: 0.8; stroke: #ffbb78; stroke-opacity: 0.8"/>
     <use xlink:href="#m8cb1b1f0bd" x="713.178691" y="447.392874" style="fill: #ffbb78; fill-opacity: 0.8; stroke: #ffbb78; stroke-opacity: 0.8"/>
     <use xlink:href="#m8cb1b1f0bd" x="728.104888" y="439.100391" style="fill: #ffbb78; fill-opacity: 0.8; stroke: #ffbb78; stroke-opacity: 0.8"/>
     <use xlink:href="#m8cb1b1f0bd" x="777.949975" y="465.549777" style="fill: #ffbb78; fill-opacity: 0.8; stroke: #ffbb78; stroke-opacity: 0.8"/>
     <use xlink:href="#m8cb1b1f0bd" x="764.259033" y="450.376487" style="fill: #ffbb78; fill-opacity: 0.8; stroke: #ffbb78; stroke-opacity: 0.8"/>
     <use xlink:href="#m8cb1b1f0bd" x="743.43012" y="487.955388" style="fill: #ffbb78; fill-opacity: 0.8; stroke: #ffbb78; stroke-opacity: 0.8"/>
     <use xlink:href="#m8cb1b1f0bd" x="704.777719" y="467.744712" style="fill: #ffbb78; fill-opacity: 0.8; stroke: #ffbb78; stroke-opacity: 0.8"/>
     <use xlink:href="#m8cb1b1f0bd" x="708.102991" y="494.097229" style="fill: #ffbb78; fill-opacity: 0.8; stroke: #ffbb78; stroke-opacity: 0.8"/>
     <use xlink:href="#m8cb1b1f0bd" x="685.200645" y="471.308216" style="fill: #ffbb78; fill-opacity: 0.8; stroke: #ffbb78; stroke-opacity: 0.8"/>
     <use xlink:href="#m8cb1b1f0bd" x="728.812467" y="463.356239" style="fill: #ffbb78; fill-opacity: 0.8; stroke: #ffbb78; stroke-opacity: 0.8"/>
     <use xlink:href="#m8cb1b1f0bd" x="673.976643" y="450.775083" style="fill: #ffbb78; fill-opacity: 0.8; stroke: #ffbb78; stroke-opacity: 0.8"/>
     <use xlink:href="#m8cb1b1f0bd" x="698.847787" y="439.7616" style="fill: #ffbb78; fill-opacity: 0.8; stroke: #ffbb78; stroke-opacity: 0.8"/>
     <use xlink:href="#m8cb1b1f0bd" x="711.588693" y="481.688547" style="fill: #ffbb78; fill-opacity: 0.8; stroke: #ffbb78; stroke-opacity: 0.8"/>
     <use xlink:href="#m8cb1b1f0bd" x="770.409339" y="487.220009" style="fill: #ffbb78; fill-opacity: 0.8; stroke: #ffbb78; stroke-opacity: 0.8"/>
     <use xlink:href="#m8cb1b1f0bd" x="703.985034" y="427.599746" style="fill: #ffbb78; fill-opacity: 0.8; stroke: #ffbb78; stroke-opacity: 0.8"/>
    </g>
   </g>
   <g id="PathCollection_4">
    <defs>
     <path id="m94af0356c0" d="M 0 5 
C 1.326016 5 2.597899 4.473168 3.535534 3.535534 
C 4.473168 2.597899 5 1.326016 5 0 
C 5 -1.326016 4.473168 -2.597899 3.535534 -3.535534 
C 2.597899 -4.473168 1.326016 -5 0 -5 
C -1.326016 -5 -2.597899 -4.473168 -3.535534 -3.535534 
C -4.473168 -2.597899 -5 -1.326016 -5 0 
C -5 1.326016 -4.473168 2.597899 -3.535534 3.535534 
C -2.597899 4.473168 -1.326016 5 0 5 
z
" style="stroke: #d62728; stroke-opacity: 0.8"/>
    </defs>
    <g clip-path="url(#pe895896623)">
     <use xlink:href="#m94af0356c0" x="543.131331" y="569.993289" style="fill: #d62728; fill-opacity: 0.8; stroke: #d62728; stroke-opacity: 0.8"/>
     <use xlink:href="#m94af0356c0" x="511.665771" y="592.690909" style="fill: #d62728; fill-opacity: 0.8; stroke: #d62728; stroke-opacity: 0.8"/>
     <use xlink:href="#m94af0356c0" x="491.683259" y="550.074083" style="fill: #d62728; fill-opacity: 0.8; stroke: #d62728; stroke-opacity: 0.8"/>
     <use xlink:href="#m94af0356c0" x="547.459809" y="563.17827" style="fill: #d62728; fill-opacity: 0.8; stroke: #d62728; stroke-opacity: 0.8"/>
     <use xlink:href="#m94af0356c0" x="593.629255" y="575.888361" style="fill: #d62728; fill-opacity: 0.8; stroke: #d62728; stroke-opacity: 0.8"/>
     <use xlink:href="#m94af0356c0" x="676.004348" y="556.244984" style="fill: #d62728; fill-opacity: 0.8; stroke: #d62728; stroke-opacity: 0.8"/>
     <use xlink:href="#m94af0356c0" x="531.225011" y="542.250307" style="fill: #d62728; fill-opacity: 0.8; stroke: #d62728; stroke-opacity: 0.8"/>
    </g>
   </g>
   <g id="PathCollection_5">
    <defs>
     <path id="m1d68de808b" d="M 0 5 
C 1.326016 5 2.597899 4.473168 3.535534 3.535534 
C 4.473168 2.597899 5 1.326016 5 0 
C 5 -1.326016 4.473168 -2.597899 3.535534 -3.535534 
C 2.597899 -4.473168 1.326016 -5 0 -5 
C -1.326016 -5 -2.597899 -4.473168 -3.535534 -3.535534 
C -4.473168 -2.597899 -5 -1.326016 -5 0 
C -5 1.326016 -4.473168 2.597899 -3.535534 3.535534 
C -2.597899 4.473168 -1.326016 5 0 5 
z
" style="stroke: #1f77b4; stroke-opacity: 0.8"/>
    </defs>
    <g clip-path="url(#pe895896623)">
     <use xlink:href="#m1d68de808b" x="361.294894" y="394.849152" style="fill: #1f77b4; fill-opacity: 0.8; stroke: #1f77b4; stroke-opacity: 0.8"/>
     <use xlink:href="#m1d68de808b" x="325.858594" y="349.464255" style="fill: #1f77b4; fill-opacity: 0.8; stroke: #1f77b4; stroke-opacity: 0.8"/>
     <use xlink:href="#m1d68de808b" x="337.007903" y="340.707488" style="fill: #1f77b4; fill-opacity: 0.8; stroke: #1f77b4; stroke-opacity: 0.8"/>
     <use xlink:href="#m1d68de808b" x="351.816485" y="344.353617" style="fill: #1f77b4; fill-opacity: 0.8; stroke: #1f77b4; stroke-opacity: 0.8"/>
     <use xlink:href="#m1d68de808b" x="328.992241" y="314.631335" style="fill: #1f77b4; fill-opacity: 0.8; stroke: #1f77b4; stroke-opacity: 0.8"/>
    </g>
   </g>
   <g id="PathCollection_6">
    <defs>
     <path id="m8ee4e915f1" d="M 0 5 
C 1.326016 5 2.597899 4.473168 3.535534 3.535534 
C 4.473168 2.597899 5 1.326016 5 0 
C 5 -1.326016 4.473168 -2.597899 3.535534 -3.535534 
C 2.597899 -4.473168 1.326016 -5 0 -5 
C -1.326016 -5 -2.597899 -4.473168 -3.535534 -3.535534 
C -4.473168 -2.597899 -5 -1.326016 -5 0 
C -5 1.326016 -4.473168 2.597899 -3.535534 3.535534 
C -2.597899 4.473168 -1.326016 5 0 5 
z
" style="stroke: #ff7f0e; stroke-opacity: 0.8"/>
    </defs>
    <g clip-path="url(#pe895896623)">
     <use xlink:href="#m8ee4e915f1" x="267.886836" y="407.722051" style="fill: #ff7f0e; fill-opacity: 0.8; stroke: #ff7f0e; stroke-opacity: 0.8"/>
     <use xlink:href="#m8ee4e915f1" x="216.702196" y="398.561688" style="fill: #ff7f0e; fill-opacity: 0.8; stroke: #ff7f0e; stroke-opacity: 0.8"/>
     <use xlink:href="#m8ee4e915f1" x="240.119282" y="414.922378" style="fill: #ff7f0e; fill-opacity: 0.8; stroke: #ff7f0e; stroke-opacity: 0.8"/>
     <use xlink:href="#m8ee4e915f1" x="234.649031" y="426.032922" style="fill: #ff7f0e; fill-opacity: 0.8; stroke: #ff7f0e; stroke-opacity: 0.8"/>
     <use xlink:href="#m8ee4e915f1" x="297.678879" y="439.171267" style="fill: #ff7f0e; fill-opacity: 0.8; stroke: #ff7f0e; stroke-opacity: 0.8"/>
     <use xlink:href="#m8ee4e915f1" x="207.632231" y="411.706632" style="fill: #ff7f0e; fill-opacity: 0.8; stroke: #ff7f0e; stroke-opacity: 0.8"/>
    </g>
   </g>
   <g id="PathCollection_7">
    <defs>
     <path id="m1de8fe063a" d="M 0 5 
C 1.326016 5 2.597899 4.473168 3.535534 3.535534 
C 4.473168 2.597899 5 1.326016 5 0 
C 5 -1.326016 4.473168 -2.597899 3.535534 -3.535534 
C 2.597899 -4.473168 1.326016 -5 0 -5 
C -1.326016 -5 -2.597899 -4.473168 -3.535534 -3.535534 
C -4.473168 -2.597899 -5 -1.326016 -5 0 
C -5 1.326016 -4.473168 2.597899 -3.535534 3.535534 
C -2.597899 4.473168 -1.326016 5 0 5 
z
" style="stroke: #98df8a; stroke-opacity: 0.8"/>
    </defs>
    <g clip-path="url(#pe895896623)">
     <use xlink:href="#m1de8fe063a" x="899.367769" y="147.357249" style="fill: #98df8a; fill-opacity: 0.8; stroke: #98df8a; stroke-opacity: 0.8"/>
     <use xlink:href="#m1de8fe063a" x="876.675514" y="135.995168" style="fill: #98df8a; fill-opacity: 0.8; stroke: #98df8a; stroke-opacity: 0.8"/>
     <use xlink:href="#m1de8fe063a" x="864.121111" y="168.043579" style="fill: #98df8a; fill-opacity: 0.8; stroke: #98df8a; stroke-opacity: 0.8"/>
     <use xlink:href="#m1de8fe063a" x="894.810124" y="158.296157" style="fill: #98df8a; fill-opacity: 0.8; stroke: #98df8a; stroke-opacity: 0.8"/>
     <use xlink:href="#m1de8fe063a" x="894.863655" y="134.509091" style="fill: #98df8a; fill-opacity: 0.8; stroke: #98df8a; stroke-opacity: 0.8"/>
     <use xlink:href="#m1de8fe063a" x="876.686329" y="154.033498" style="fill: #98df8a; fill-opacity: 0.8; stroke: #98df8a; stroke-opacity: 0.8"/>
     <use xlink:href="#m1de8fe063a" x="864.33191" y="143.807244" style="fill: #98df8a; fill-opacity: 0.8; stroke: #98df8a; stroke-opacity: 0.8"/>
    </g>
   </g>
   <g id="text_1">
    <g clip-path="url(#pe895896623)">
     <!-- 花火 -->
     <g transform="translate(392.822927 474.090418) scale(0.1 -0.1)">
      <defs>
       <path id="SimHei-82b1" d="M 3950 3275 
Q 3925 2975 3925 2550 
L 3925 1850 
Q 4200 2000 4587 2362 
Q 4975 2725 5150 3000 
Q 5375 2800 5700 2650 
Q 5400 2475 5100 2187 
Q 4800 1900 3925 1300 
L 3925 275 
Q 3925 0 4250 0 
L 5025 0 
Q 5275 0 5375 112 
Q 5475 225 5550 675 
Q 5800 500 6075 450 
Q 5900 -150 5737 -275 
Q 5575 -400 5250 -400 
L 4025 -400 
Q 3450 -400 3450 0 
L 3450 1025 
Q 3200 875 2575 550 
Q 2450 775 2225 975 
Q 2750 1125 3450 1550 
L 3450 2550 
Q 3450 2975 3425 3275 
L 3950 3275 
z
M 2450 4025 
Q 2450 3750 2475 3450 
L 1925 3450 
Q 1950 3750 1950 4025 
L 1250 4025 
Q 825 4025 400 4000 
L 400 4450 
Q 825 4425 1250 4425 
L 1950 4425 
Q 1950 4825 1925 5125 
L 2500 5125 
Q 2450 4825 2450 4425 
L 3725 4425 
L 3725 5175 
L 4250 5175 
Q 4225 4875 4225 4425 
L 5225 4425 
Q 5675 4425 6000 4450 
L 6000 4000 
Q 5675 4025 5225 4025 
L 4225 4025 
Q 4225 3800 4250 3450 
L 3725 3450 
L 3725 4025 
L 2450 4025 
z
M 2650 3075 
Q 2350 2875 2000 2500 
L 2000 325 
Q 2000 -75 2025 -575 
L 1500 -575 
Q 1525 -100 1525 325 
L 1525 2025 
Q 1100 1625 600 1275 
Q 475 1500 300 1700 
Q 725 1925 1312 2487 
Q 1900 3050 2050 3375 
Q 2275 3200 2650 3075 
z
" transform="scale(0.015625)"/>
       <path id="SimHei-706b" d="M 3525 5175 
Q 3425 4800 3412 4412 
Q 3400 4025 3412 3437 
Q 3425 2850 3650 2250 
Q 3875 1650 4225 1250 
Q 4575 850 5037 562 
Q 5500 275 6200 100 
Q 5875 -200 5750 -475 
Q 5200 -225 4837 12 
Q 4475 250 4175 537 
Q 3875 825 3612 1225 
Q 3350 1625 3175 2250 
Q 3050 1675 2825 1287 
Q 2600 900 2337 575 
Q 2075 250 1675 -37 
Q 1275 -325 800 -650 
Q 625 -375 275 -175 
Q 1100 150 1687 662 
Q 2275 1175 2525 1837 
Q 2775 2500 2862 3362 
Q 2950 4225 2925 5250 
Q 3200 5200 3525 5175 
z
M 5500 3975 
Q 5300 3775 5100 3237 
Q 4900 2700 4725 2325 
Q 4500 2475 4200 2550 
Q 4450 2950 4625 3387 
Q 4800 3825 4900 4175 
Q 5125 4050 5500 3975 
z
M 1875 3950 
Q 1750 3775 1625 3262 
Q 1500 2750 1325 2250 
Q 1075 2325 775 2375 
Q 900 2600 1050 3062 
Q 1200 3525 1300 4075 
Q 1525 4000 1875 3950 
z
" transform="scale(0.015625)"/>
      </defs>
      <use xlink:href="#SimHei-82b1"/>
      <use xlink:href="#SimHei-706b" transform="translate(100 0)"/>
     </g>
    </g>
   </g>
   <g id="text_2">
    <g clip-path="url(#pe895896623)">
     <!-- 桑博 -->
     <g transform="translate(287.678879 442.530642) scale(0.1 -0.1)">
      <defs>
       <path id="SimHei-6851" d="M 2950 1250 
L 2950 1800 
L 3500 1800 
Q 3475 1475 3475 1250 
L 5100 1250 
Q 5525 1250 6000 1275 
L 6000 875 
L 4100 875 
Q 4325 600 4850 387 
Q 5375 175 5975 125 
Q 5700 -150 5650 -350 
Q 4875 -175 4387 137 
Q 3900 450 3600 875 
L 3475 875 
Q 3475 25 3500 -550 
L 2950 -550 
L 2950 875 
L 2875 875 
Q 2400 325 1887 37 
Q 1375 -250 775 -475 
Q 675 -250 400 -75 
Q 900 50 1387 250 
Q 1875 450 2300 875 
L 450 875 
L 450 1275 
Q 925 1250 1375 1250 
L 2950 1250 
z
M 5200 4925 
Q 4925 4625 4637 4400 
Q 4350 4175 4025 3975 
Q 4675 3825 5200 3650 
Q 5000 3450 4900 3300 
Q 4375 3500 3475 3775 
Q 2850 3500 2300 3412 
Q 1750 3325 1375 3275 
Q 1325 3525 1075 3675 
Q 1625 3675 2050 3737 
Q 2475 3800 2975 3925 
Q 2575 4050 1825 4250 
Q 2000 4425 2075 4525 
Q 1675 4525 1225 4500 
L 1225 4925 
L 5200 4925 
z
M 3100 3225 
Q 3000 3000 2850 2700 
Q 2700 2400 2475 2125 
Q 2775 1950 2925 1875 
Q 2700 1725 2575 1475 
Q 2350 1775 2075 1875 
Q 1900 1750 1612 1612 
Q 1325 1475 875 1375 
Q 800 1575 550 1775 
Q 1175 1850 1775 2075 
Q 1425 2325 1000 2450 
Q 1150 2600 1300 2775 
Q 1800 2525 2100 2350 
Q 2400 2650 2450 2850 
L 1475 2850 
Q 1050 2850 600 2825 
L 600 3250 
Q 1050 3225 1475 3225 
L 3100 3225 
z
M 5700 3225 
Q 5575 2975 5437 2762 
Q 5300 2550 4975 2200 
Q 5400 2075 5825 1875 
Q 5625 1750 5450 1475 
Q 5100 1750 4650 1900 
Q 4375 1700 3950 1475 
Q 3850 1675 3575 1825 
Q 3600 1850 3787 1887 
Q 3975 1925 4225 2100 
Q 3850 2300 3375 2400 
Q 3500 2600 3575 2725 
Q 4150 2550 4575 2375 
Q 4750 2550 4975 2850 
L 4075 2850 
Q 3725 2850 3325 2825 
L 3325 3250 
Q 3725 3225 4075 3225 
L 5700 3225 
z
M 3500 4125 
Q 3875 4325 4100 4525 
L 2125 4525 
Q 2825 4325 3500 4125 
z
" transform="scale(0.015625)"/>
       <path id="SimHei-535a" d="M 3600 4575 
Q 3600 5000 3575 5200 
L 4100 5200 
Q 4075 4950 4075 4575 
L 5075 4575 
Q 5650 4575 5925 4600 
L 5925 4150 
Q 5650 4175 5100 4175 
L 4075 4175 
L 4075 3775 
L 5525 3775 
Q 5500 3400 5500 3050 
L 5500 2500 
Q 5500 2025 5525 1725 
L 5050 1725 
L 5050 1975 
L 4075 1975 
Q 4075 1750 4100 1525 
L 3575 1525 
Q 3600 1775 3600 1975 
L 2775 1975 
L 2775 1550 
L 2275 1550 
Q 2300 1825 2300 2250 
L 2300 3025 
Q 2300 3500 2275 3775 
L 3600 3775 
L 3600 4175 
L 3075 4175 
Q 2575 4175 2100 4150 
L 2100 4600 
Q 2550 4575 3050 4575 
L 3600 4575 
z
M 950 4375 
Q 950 4825 925 5175 
L 1425 5175 
Q 1400 4750 1400 4375 
L 1400 3375 
Q 1725 3375 2050 3400 
L 2050 2925 
Q 1700 2950 1400 2950 
L 1400 250 
Q 1400 -225 1425 -500 
L 925 -500 
Q 950 -250 950 250 
L 950 2950 
Q 600 2950 250 2925 
L 250 3400 
Q 625 3375 950 3375 
L 950 4375 
z
M 4800 1225 
Q 4800 1425 4775 1625 
L 5275 1625 
Q 5250 1425 5250 1225 
L 5425 1225 
Q 5875 1225 6200 1250 
L 6200 775 
Q 5850 800 5425 800 
L 5250 800 
L 5250 -25 
Q 5250 -425 4987 -500 
Q 4725 -575 4325 -650 
Q 4275 -375 4125 -125 
Q 4550 -125 4675 -100 
Q 4800 -75 4800 200 
L 4800 800 
L 2700 800 
Q 2175 800 1875 750 
L 1875 1250 
Q 2175 1225 2700 1225 
L 4800 1225 
z
M 3075 750 
Q 3375 400 3600 100 
Q 3375 -50 3175 -200 
Q 2975 125 2675 475 
Q 2875 600 3075 750 
z
M 5050 2350 
L 5050 2700 
L 4075 2700 
L 4075 2350 
L 5050 2350 
z
M 5050 3075 
L 5050 3400 
L 4075 3400 
L 4075 3075 
L 5050 3075 
z
M 3600 2350 
L 3600 2700 
L 2775 2700 
L 2775 2350 
L 3600 2350 
z
M 3600 3075 
L 3600 3400 
L 2775 3400 
L 2775 3075 
L 3600 3075 
z
M 5000 4625 
Q 4800 4825 4650 5000 
L 5025 5250 
Q 5150 5075 5375 4850 
Q 5150 4750 5000 4625 
z
" transform="scale(0.015625)"/>
      </defs>
      <use xlink:href="#SimHei-6851"/>
      <use xlink:href="#SimHei-535a" transform="translate(100 0)"/>
     </g>
    </g>
   </g>
   <g id="text_3">
    <g clip-path="url(#pe895896623)">
     <!-- 三月七 -->
     <g transform="translate(582.27198 469.729078) scale(0.1 -0.1)">
      <defs>
       <path id="SimHei-4e09" d="M 6000 -200 
Q 5550 -175 5200 -175 
L 1300 -175 
Q 900 -175 375 -200 
L 375 350 
Q 850 325 1300 325 
L 5200 325 
Q 5575 325 6000 375 
L 6000 -200 
z
M 900 4600 
Q 1400 4575 1825 4575 
L 4600 4575 
Q 5075 4575 5475 4600 
L 5475 4075 
Q 5100 4100 4600 4100 
L 1800 4100 
Q 1375 4100 900 4075 
L 900 4600 
z
M 2075 2100 
Q 1700 2100 1275 2075 
L 1275 2625 
Q 1675 2600 2075 2600 
L 4225 2600 
Q 4600 2600 5050 2625 
L 5050 2075 
Q 4550 2100 4225 2100 
L 2075 2100 
z
" transform="scale(0.015625)"/>
       <path id="SimHei-6708" d="M 5250 4825 
Q 5200 4225 5200 3750 
L 5200 200 
Q 5200 -275 4950 -375 
Q 4700 -475 3975 -525 
Q 3925 -225 3750 50 
Q 4300 25 4512 50 
Q 4725 75 4725 400 
L 4725 1600 
L 1850 1600 
Q 1725 775 1450 225 
Q 1175 -325 900 -575 
Q 700 -400 400 -325 
Q 800 25 1037 512 
Q 1275 1000 1337 1475 
Q 1400 1950 1400 2525 
L 1400 3625 
Q 1400 4175 1375 4825 
L 5250 4825 
z
M 4725 3400 
L 4725 4450 
L 1875 4450 
L 1875 3400 
L 4725 3400 
z
M 4725 2000 
L 4725 3025 
L 1875 3025 
L 1875 2000 
L 4725 2000 
z
" transform="scale(0.015625)"/>
       <path id="SimHei-4e03" d="M 2975 2975 
L 4950 3425 
Q 5750 3650 5900 3725 
L 6050 3150 
Q 5800 3150 5125 2975 
L 2975 2450 
L 2975 500 
Q 2975 75 3325 75 
L 5000 75 
Q 5350 75 5425 875 
Q 5725 625 6050 575 
Q 5850 -50 5700 -212 
Q 5550 -375 5125 -375 
L 3100 -375 
Q 2425 -375 2425 300 
L 2425 2325 
L 1150 2050 
Q 675 1950 400 1850 
L 225 2425 
Q 450 2450 1100 2575 
L 2425 2825 
L 2425 4025 
Q 2425 4550 2400 5000 
L 3050 5000 
Q 2975 4500 2975 4175 
L 2975 2975 
z
" transform="scale(0.015625)"/>
      </defs>
      <use xlink:href="#SimHei-4e09"/>
      <use xlink:href="#SimHei-6708" transform="translate(100 0)"/>
      <use xlink:href="#SimHei-4e03" transform="translate(200 0)"/>
     </g>
    </g>
   </g>
   <g id="text_4">
    <g clip-path="url(#pe895896623)">
     <!-- 星期日 -->
     <g transform="translate(530.888474 500.660298) scale(0.1 -0.1)">
      <defs>
       <path id="SimHei-661f" d="M 1000 2800 
Q 1025 3225 1025 3850 
Q 1025 4475 1000 4950 
L 5375 4950 
Q 5350 4475 5350 3850 
Q 5350 3225 5375 2800 
L 1000 2800 
z
M 3525 2525 
Q 3500 2225 3500 1925 
Q 5050 1925 5550 1950 
L 5550 1475 
Q 5050 1500 3500 1500 
L 3500 900 
Q 4925 900 5350 925 
L 5350 475 
Q 4925 500 3500 500 
L 3500 -175 
L 5075 -175 
Q 5500 -175 6025 -125 
L 6025 -625 
Q 5500 -600 5075 -600 
L 1350 -600 
Q 850 -600 375 -650 
L 375 -125 
Q 850 -150 1350 -175 
L 2975 -175 
L 2975 500 
Q 1700 500 1325 475 
L 1325 925 
Q 1700 900 2975 900 
L 2975 1500 
L 1350 1500 
Q 1200 1350 1062 1150 
Q 925 950 650 650 
Q 500 775 225 1000 
Q 550 1300 850 1700 
Q 1150 2100 1350 2525 
Q 1600 2375 1950 2250 
Q 1725 2075 1600 1925 
L 2975 1925 
Q 2975 2225 2950 2525 
L 3525 2525 
z
M 4825 4075 
L 4825 4550 
L 1550 4550 
L 1550 4075 
L 4825 4075 
z
M 4825 3200 
L 4825 3675 
L 1550 3675 
L 1550 3200 
L 4825 3200 
z
" transform="scale(0.015625)"/>
       <path id="SimHei-671f" d="M 4900 -25 
Q 5475 -100 5425 175 
L 5425 1575 
L 4325 1575 
Q 4275 975 4050 425 
Q 3825 -125 3400 -600 
Q 3225 -375 2925 -275 
Q 3350 150 3562 625 
Q 3775 1100 3812 1575 
Q 3850 2050 3850 3125 
Q 3850 4225 3825 4875 
L 5950 4875 
Q 5925 4400 5925 3725 
L 5925 50 
Q 5925 -300 5700 -425 
Q 5475 -550 5100 -600 
Q 5100 -325 4900 -25 
z
M 950 4300 
Q 950 4675 925 5125 
L 1450 5125 
Q 1425 4625 1425 4300 
L 2550 4300 
Q 2550 4775 2525 5125 
L 3075 5125 
Q 3050 4700 3050 4300 
Q 3225 4300 3500 4325 
L 3500 3900 
Q 3250 3925 3050 3925 
L 3050 1550 
Q 3250 1550 3500 1575 
L 3500 1150 
Q 3025 1175 2575 1175 
L 1225 1175 
Q 675 1175 275 1150 
L 275 1575 
Q 650 1550 950 1550 
L 950 3925 
Q 725 3925 425 3900 
L 425 4325 
Q 700 4300 950 4300 
z
M 5425 3375 
L 5425 4500 
L 4350 4500 
L 4350 3375 
L 5425 3375 
z
M 5425 1950 
L 5425 3000 
L 4350 3000 
L 4350 1950 
L 5425 1950 
z
M 1600 725 
Q 1425 650 1162 287 
Q 900 -75 650 -350 
Q 400 -175 225 -75 
Q 450 100 700 412 
Q 950 725 1100 1025 
L 1600 725 
z
M 2550 3375 
L 2550 3925 
L 1425 3925 
L 1425 3375 
L 2550 3375 
z
M 2550 1550 
L 2550 2100 
L 1425 2100 
L 1425 1550 
L 2550 1550 
z
M 2550 2475 
L 2550 3000 
L 1425 3000 
L 1425 2475 
L 2550 2475 
z
M 2850 -75 
Q 2450 525 2225 725 
Q 2375 825 2550 1025 
Q 2850 725 3250 275 
Q 3050 125 2850 -75 
z
" transform="scale(0.015625)"/>
       <path id="SimHei-65e5" d="M 5375 5000 
Q 5350 3775 5350 2275 
Q 5350 775 5375 -450 
L 4800 -450 
L 4800 175 
L 1800 175 
L 1800 -575 
L 1250 -575 
Q 1275 575 1275 2125 
Q 1275 3675 1250 5000 
L 5375 5000 
z
M 4800 600 
L 4800 2375 
L 1800 2375 
L 1800 600 
L 4800 600 
z
M 4800 2800 
L 4800 4550 
L 1800 4550 
L 1800 2800 
L 4800 2800 
z
" transform="scale(0.015625)"/>
      </defs>
      <use xlink:href="#SimHei-661f"/>
      <use xlink:href="#SimHei-671f" transform="translate(100 0)"/>
      <use xlink:href="#SimHei-65e5" transform="translate(200 0)"/>
     </g>
    </g>
   </g>
   <g id="text_5">
    <g clip-path="url(#pe895896623)">
     <!-- 砂金 -->
     <g transform="translate(471.716979 497.437476) scale(0.1 -0.1)">
      <defs>
       <path id="SimHei-7802" d="M 2100 4750 
Q 2450 4750 2875 4800 
L 2875 4325 
Q 2425 4350 1775 4350 
Q 1650 3725 1400 3075 
L 2575 3075 
Q 2550 2675 2550 1725 
Q 2550 800 2575 350 
L 2100 350 
L 2100 675 
L 1375 675 
L 1375 -225 
L 900 -225 
Q 925 275 925 650 
L 925 2175 
Q 775 1900 500 1575 
Q 350 1900 200 2100 
Q 425 2275 637 2562 
Q 850 2850 1012 3287 
Q 1175 3725 1300 4350 
Q 775 4350 350 4325 
L 350 4775 
Q 775 4750 1100 4750 
L 2100 4750 
z
M 6075 2125 
Q 5825 1775 5650 1425 
Q 5475 1075 5175 675 
Q 4875 275 4325 -62 
Q 3775 -400 2775 -700 
Q 2700 -450 2400 -200 
Q 3100 -125 3587 87 
Q 4075 300 4437 637 
Q 4800 975 5087 1437 
Q 5375 1900 5450 2350 
L 6075 2125 
z
M 4575 5275 
Q 4550 4900 4550 4450 
L 4550 2475 
Q 4550 1975 4575 1525 
L 4075 1525 
Q 4100 2075 4100 2475 
L 4100 4450 
Q 4100 4875 4075 5275 
L 4575 5275 
z
M 2100 1125 
L 2100 2675 
L 1375 2675 
L 1375 1125 
L 2100 1125 
z
M 3825 4000 
Q 3625 3575 3487 2937 
Q 3350 2300 3225 1825 
Q 2975 1950 2725 2000 
Q 2925 2425 3050 2950 
Q 3175 3475 3225 4100 
L 3825 4000 
z
M 5375 4175 
Q 5750 3675 6175 3125 
Q 5875 3000 5725 2775 
Q 5400 3375 4950 3825 
Q 5175 3950 5375 4175 
z
" transform="scale(0.015625)"/>
       <path id="SimHei-91d1" d="M 1800 1250 
Q 2200 700 2500 225 
Q 2325 125 2150 -50 
L 2925 -50 
L 2925 1400 
L 2075 1400 
Q 1725 1400 1100 1375 
L 1100 1850 
Q 1725 1825 2050 1825 
L 2925 1825 
L 2925 2600 
Q 2100 2600 1625 2575 
L 1625 2975 
Q 1225 2675 650 2350 
Q 500 2575 275 2775 
Q 750 2950 1250 3300 
Q 1750 3650 2225 4162 
Q 2700 4675 3000 5250 
Q 3050 5200 3525 4975 
L 3375 4825 
Q 3650 4525 4050 4150 
Q 4450 3775 5000 3487 
Q 5550 3200 6150 3025 
Q 5950 2825 5825 2550 
Q 5325 2725 4800 3000 
L 4800 2575 
Q 4300 2600 4000 2600 
L 3400 2600 
L 3400 1825 
L 4275 1825 
Q 4700 1825 5325 1850 
L 5325 1375 
Q 4725 1400 4275 1400 
L 3400 1400 
L 3400 -50 
L 3875 -50 
Q 4450 950 4500 1300 
Q 4725 1150 5050 1000 
Q 4875 775 4375 -50 
Q 5150 -50 5875 -25 
L 5875 -500 
Q 5150 -475 4700 -475 
L 1725 -475 
Q 1200 -475 700 -500 
L 700 -25 
Q 1225 -50 1725 -50 
L 2025 -50 
Q 1850 350 1400 950 
Q 1625 1100 1800 1250 
z
M 1700 3050 
Q 2075 3025 2400 3025 
L 3900 3025 
Q 4275 3050 4700 3050 
Q 4275 3350 3837 3762 
Q 3400 4175 3125 4525 
Q 2850 4150 2462 3762 
Q 2075 3375 1700 3050 
z
" transform="scale(0.015625)"/>
      </defs>
      <use xlink:href="#SimHei-7802"/>
      <use xlink:href="#SimHei-91d1" transform="translate(100 0)"/>
     </g>
    </g>
   </g>
   <g id="text_6">
    <!-- 银河角色评价关系社区结构 -->
    <g transform="translate(457.5 80.4) scale(0.16 -0.16)">
     <defs>
      <path id="SimHei-94f6" d="M 5675 4900 
Q 5650 4425 5650 3875 
L 5650 3275 
Q 5650 2850 5675 2375 
L 4450 2375 
Q 4525 1925 4725 1500 
Q 5225 1825 5500 2225 
Q 5675 2050 5950 1800 
Q 5225 1400 4925 1100 
Q 5350 375 6200 25 
Q 5900 -175 5725 -450 
Q 5125 -50 4650 712 
Q 4175 1475 4000 2375 
L 3575 2375 
L 3575 150 
Q 3775 250 4200 600 
Q 4275 350 4400 150 
Q 3925 -100 3225 -625 
Q 3075 -375 2975 -200 
Q 3125 25 3150 450 
L 3150 3775 
Q 3150 4300 3125 4900 
L 5675 4900 
z
M 2500 2775 
Q 2100 2800 1850 2800 
L 1850 2075 
Q 2275 2075 2725 2100 
L 2725 1600 
Q 2275 1625 1850 1625 
L 1850 350 
Q 2225 675 2500 950 
Q 2575 625 2650 425 
Q 2500 350 2150 50 
Q 1800 -250 1525 -550 
Q 1375 -325 1200 -125 
Q 1375 125 1400 475 
L 1400 1625 
Q 1050 1625 600 1600 
L 600 2100 
Q 1100 2075 1400 2075 
L 1400 2800 
Q 1250 2800 950 2775 
L 950 3200 
Q 1350 3175 1725 3175 
Q 2125 3175 2500 3200 
L 2500 2775 
z
M 550 2925 
Q 350 3175 200 3350 
Q 575 3700 862 4225 
Q 1150 4750 1350 5275 
Q 1575 5125 1950 5050 
Q 1700 4750 1425 4250 
L 1800 4250 
Q 2125 4250 2675 4275 
L 2675 3800 
Q 2125 3825 1800 3825 
L 1200 3825 
Q 750 3175 550 2925 
z
M 5200 2800 
L 5200 3450 
L 3575 3450 
L 3575 2800 
L 5200 2800 
z
M 5200 3850 
L 5200 4475 
L 3575 4475 
L 3575 3850 
L 5200 3850 
z
" transform="scale(0.015625)"/>
      <path id="SimHei-6cb3" d="M 4250 3450 
Q 4225 2975 4225 2000 
Q 4225 1025 4250 750 
L 3750 750 
L 3750 1150 
L 2850 1150 
L 2850 425 
L 2350 425 
Q 2400 725 2400 1875 
Q 2400 3050 2375 3450 
L 4250 3450 
z
M 5475 4675 
Q 5800 4675 6175 4700 
L 6175 4200 
Q 5700 4225 5425 4225 
L 5425 0 
Q 5425 -375 5175 -487 
Q 4925 -600 4400 -675 
Q 4375 -425 4125 -100 
Q 4675 -125 4825 -87 
Q 4975 -50 4975 200 
L 4975 4225 
L 3025 4225 
Q 2625 4225 2125 4200 
L 2125 4700 
Q 2625 4675 3025 4675 
L 5475 4675 
z
M 1925 1625 
Q 1675 1225 1375 550 
Q 1075 -125 900 -550 
Q 675 -350 300 -175 
Q 525 75 862 725 
Q 1200 1375 1400 1950 
Q 1675 1750 1925 1625 
z
M 3750 1600 
L 3750 3000 
L 2850 3000 
L 2850 1600 
L 3750 1600 
z
M 525 3500 
Q 1150 3125 1675 2800 
Q 1450 2550 1325 2325 
Q 850 2725 250 3050 
Q 400 3250 525 3500 
z
M 850 5050 
Q 1350 4675 1850 4225 
Q 1575 4000 1400 3825 
Q 1025 4275 500 4700 
Q 675 4850 850 5050 
z
" transform="scale(0.015625)"/>
      <path id="SimHei-89d2" d="M 3125 900 
L 1625 900 
Q 1475 125 875 -625 
Q 650 -400 400 -300 
Q 775 50 975 475 
Q 1175 900 1250 1575 
Q 1325 2250 1300 3325 
Q 1100 3125 825 2925 
Q 700 3125 425 3325 
Q 650 3425 1075 3737 
Q 1500 4050 1850 4512 
Q 2200 4975 2350 5275 
Q 2550 5125 2825 5000 
Q 2700 4875 2425 4525 
L 4825 4525 
Q 4700 4375 4050 3475 
L 5600 3475 
Q 5575 2925 5575 2500 
L 5575 25 
Q 5575 -350 5325 -450 
Q 5075 -550 4575 -600 
Q 4500 -325 4325 -50 
Q 4825 -50 4975 0 
Q 5125 50 5100 325 
L 5100 900 
L 3600 900 
L 3600 400 
Q 3600 25 3625 -500 
L 3075 -500 
Q 3125 0 3125 500 
L 3125 900 
z
M 3525 3475 
L 3975 4125 
L 2150 4125 
Q 1825 3775 1475 3475 
L 3525 3475 
z
M 5100 1300 
L 5100 2000 
L 3600 2000 
L 3600 1300 
L 5100 1300 
z
M 5100 2400 
L 5100 3050 
L 3600 3050 
L 3600 2400 
L 5100 2400 
z
M 3125 1300 
L 3125 2000 
L 1750 2000 
Q 1750 1625 1700 1300 
L 3125 1300 
z
M 3125 2400 
L 3125 3050 
L 1775 3050 
L 1775 2400 
L 3125 2400 
z
" transform="scale(0.015625)"/>
      <path id="SimHei-8272" d="M 2925 4975 
Q 2725 4875 2425 4450 
L 4750 4450 
Q 4625 4325 4375 3962 
Q 4125 3600 3900 3250 
L 5300 3250 
Q 5250 2950 5250 2250 
Q 5250 1575 5300 1175 
L 4775 1175 
L 4775 1525 
L 1750 1525 
L 1750 400 
Q 1775 50 2150 0 
L 4850 0 
Q 5375 -50 5425 550 
Q 5650 400 5925 350 
Q 5700 -450 4875 -425 
L 1975 -425 
Q 1275 -450 1250 250 
L 1250 3125 
Q 1025 2950 775 2750 
Q 600 2975 325 3125 
Q 725 3375 1075 3625 
Q 1425 3875 1787 4362 
Q 2150 4850 2250 5200 
L 2925 4975 
z
M 3325 3250 
Q 3750 3800 3850 4050 
L 2150 4050 
Q 1800 3625 1400 3250 
L 3325 3250 
z
M 3025 1900 
L 3025 2850 
L 1750 2850 
L 1750 1900 
L 3025 1900 
z
M 4775 1900 
L 4775 2850 
L 3500 2850 
L 3500 1900 
L 4775 1900 
z
" transform="scale(0.015625)"/>
      <path id="SimHei-8bc4" d="M 5900 4500 
Q 5400 4525 4425 4525 
L 4425 2125 
L 5200 2125 
Q 5750 2125 6175 2150 
L 6175 1675 
Q 5775 1700 5200 1700 
L 4425 1700 
L 4425 200 
Q 4425 -300 4450 -675 
L 3900 -675 
Q 3925 -200 3925 200 
L 3925 1700 
L 3075 1700 
Q 2625 1700 2225 1675 
L 2225 2150 
Q 2625 2125 3075 2125 
L 3925 2125 
L 3925 4525 
Q 2850 4525 2425 4500 
L 2425 4975 
Q 2850 4950 3300 4950 
L 4950 4950 
Q 5400 4950 5900 4975 
L 5900 4500 
z
M 875 225 
Q 1150 400 1150 650 
L 1150 2875 
Q 475 2875 225 2850 
L 225 3350 
Q 475 3325 825 3325 
L 1650 3325 
Q 1625 2825 1625 2325 
L 1625 725 
Q 1900 975 2275 1375 
Q 2375 1225 2550 950 
Q 2100 550 1812 300 
Q 1525 50 1250 -250 
Q 1100 25 875 225 
z
M 4825 2625 
Q 5200 3425 5375 4050 
Q 5650 3975 5975 3850 
Q 5925 3800 5700 3325 
Q 5475 2850 5300 2450 
Q 5050 2575 4825 2625 
z
M 2850 4000 
Q 3275 3175 3450 2700 
Q 3150 2600 2950 2475 
Q 2700 3300 2400 3800 
Q 2650 3875 2850 4000 
z
M 1100 5225 
Q 1400 4975 1975 4275 
Q 1750 4125 1575 3950 
Q 1300 4350 750 4900 
Q 900 5025 1100 5225 
z
" transform="scale(0.015625)"/>
      <path id="SimHei-4ef7" d="M 2200 4975 
Q 2050 4725 1650 3775 
L 1650 450 
Q 1650 -225 1675 -650 
L 1175 -650 
Q 1175 -225 1200 450 
L 1200 2975 
Q 900 2425 650 2100 
Q 525 2275 225 2450 
Q 750 3025 1125 3800 
Q 1500 4575 1625 5175 
Q 1950 5025 2200 4975 
z
M 4175 4700 
Q 4850 3525 6150 2950 
Q 5925 2750 5775 2500 
Q 4725 3100 3950 4300 
Q 3300 3125 2250 2350 
Q 2125 2525 1900 2725 
Q 2825 3325 3250 4050 
Q 3675 4775 3750 5150 
Q 4150 4950 4325 4900 
L 4175 4700 
z
M 3475 2650 
Q 3400 2075 3325 1087 
Q 3250 100 2325 -675 
Q 2175 -450 1925 -300 
Q 2850 350 2912 1262 
Q 2975 2175 2950 2700 
Q 3275 2650 3475 2650 
z
M 5075 2700 
Q 5050 2150 5050 1725 
L 5050 150 
Q 5050 -225 5075 -650 
L 4550 -650 
Q 4575 -225 4575 175 
L 4575 1875 
Q 4575 2150 4550 2700 
L 5075 2700 
z
" transform="scale(0.015625)"/>
      <path id="SimHei-5173" d="M 4675 4850 
Q 4525 4675 4362 4375 
Q 4200 4075 4075 3825 
L 4625 3825 
Q 5150 3825 5550 3850 
L 5550 3375 
Q 5225 3400 4700 3400 
L 3400 3400 
L 3400 2150 
L 4975 2150 
Q 5475 2150 5875 2175 
L 5875 1700 
Q 5475 1725 5025 1725 
L 3500 1725 
Q 4250 450 6000 75 
Q 5775 -175 5600 -525 
Q 4025 0 3225 1300 
Q 2800 200 875 -600 
Q 775 -350 500 -150 
Q 2425 375 2875 1725 
L 1550 1725 
Q 975 1725 600 1700 
L 600 2150 
Q 875 2125 1450 2125 
L 2925 2125 
L 2925 3400 
L 1750 3400 
Q 1275 3400 900 3375 
L 900 3850 
Q 1275 3825 1775 3825 
L 3575 3825 
Q 3925 4625 4075 5150 
Q 4325 5000 4675 4850 
z
M 2125 5125 
Q 2450 4725 2800 4175 
Q 2500 4025 2325 3875 
Q 2025 4450 1725 4825 
Q 1950 4975 2125 5125 
z
" transform="scale(0.015625)"/>
      <path id="SimHei-7cfb" d="M 5300 5200 
Q 5450 4950 5725 4675 
Q 4975 4650 4437 4587 
Q 3900 4525 3125 4450 
Q 3250 4325 3475 4225 
Q 3150 4025 2837 3762 
Q 2525 3500 2225 3275 
L 3475 3275 
Q 4100 3700 4525 4050 
Q 4775 3850 5125 3700 
Q 4775 3550 4450 3375 
Q 4125 3200 3387 2737 
Q 2650 2275 2125 1975 
Q 3600 2050 4875 2100 
Q 4750 2225 4225 2625 
Q 4475 2725 4650 2875 
Q 4950 2650 5337 2312 
Q 5725 1975 6075 1650 
Q 5775 1475 5600 1325 
Q 5400 1575 5225 1725 
Q 4550 1700 3625 1650 
L 3625 150 
Q 3625 -325 3387 -412 
Q 3150 -500 2525 -600 
Q 2475 -300 2300 -25 
Q 2875 -25 3012 12 
Q 3150 50 3150 300 
L 3150 1650 
Q 1625 1625 1075 1525 
Q 1000 1775 900 2050 
Q 1450 2100 1875 2300 
Q 2300 2500 2900 2900 
Q 2325 2900 2037 2875 
Q 1750 2850 1400 2800 
Q 1325 3075 1250 3325 
Q 1675 3325 2100 3662 
Q 2525 4000 2750 4400 
Q 1350 4350 925 4300 
Q 850 4550 750 4750 
Q 2150 4750 3250 4850 
Q 4350 4950 5300 5200 
z
M 4625 1250 
Q 4925 1025 5325 737 
Q 5725 450 6000 175 
Q 5800 0 5600 -225 
Q 5275 125 4925 400 
Q 4575 675 4275 875 
Q 4500 1050 4625 1250 
z
M 2200 875 
Q 1900 725 1537 375 
Q 1175 25 800 -300 
Q 575 -75 375 25 
Q 1075 450 1675 1225 
Q 1900 1050 2200 875 
z
" transform="scale(0.015625)"/>
      <path id="SimHei-793e" d="M 4075 4550 
Q 4075 5025 4050 5250 
L 4625 5250 
Q 4575 5000 4575 4575 
L 4575 3300 
Q 5350 3300 5800 3325 
L 5800 2825 
Q 5375 2850 4575 2850 
L 4575 275 
L 5400 275 
Q 5825 275 6150 300 
L 6150 -175 
Q 5825 -150 5425 -150 
L 3375 -150 
Q 2875 -150 2500 -175 
L 2500 300 
Q 2900 275 3375 275 
L 4075 275 
L 4075 2850 
Q 3200 2850 2850 2825 
L 2850 3325 
Q 3200 3300 4075 3300 
L 4075 4550 
z
M 2575 3675 
Q 2500 3475 2287 3075 
Q 2075 2675 1850 2350 
L 1850 100 
Q 1850 -300 1875 -650 
L 1350 -650 
Q 1375 -300 1375 100 
L 1375 1775 
Q 1250 1625 1037 1437 
Q 825 1250 525 975 
Q 400 1175 225 1450 
Q 850 1850 1212 2312 
Q 1575 2775 1825 3250 
L 1100 3250 
Q 625 3250 325 3225 
L 325 3725 
Q 625 3675 1100 3675 
L 2575 3675 
z
M 2325 2400 
Q 2750 1875 2950 1525 
Q 2725 1400 2500 1200 
Q 2325 1625 1925 2125 
Q 2075 2200 2325 2400 
z
M 1825 5200 
Q 2000 4725 2125 4325 
Q 1825 4275 1575 4175 
Q 1525 4600 1300 5050 
Q 1575 5125 1825 5200 
z
" transform="scale(0.015625)"/>
      <path id="SimHei-533a" d="M 5850 4525 
Q 5475 4550 4850 4550 
L 1150 4550 
L 1150 -75 
L 5225 -75 
Q 5725 -75 6025 -50 
L 6025 -500 
Q 5700 -475 5175 -475 
L 625 -475 
Q 650 125 650 400 
L 650 4200 
Q 650 4625 625 4975 
L 5850 4975 
L 5850 4525 
z
M 2275 3875 
Q 3150 3275 3800 2700 
Q 4375 3375 4650 4050 
Q 4925 3875 5300 3700 
Q 5025 3525 4825 3225 
Q 4625 2925 4225 2375 
Q 5075 1675 5600 1000 
Q 5300 800 5175 575 
Q 4775 1175 3850 1950 
Q 3475 1525 3087 1175 
Q 2700 825 2125 400 
Q 1900 625 1625 775 
Q 2125 1000 2525 1312 
Q 2925 1625 3475 2300 
Q 2850 2875 1925 3450 
Q 2175 3650 2275 3875 
z
" transform="scale(0.015625)"/>
      <path id="SimHei-7ed3" d="M 5725 1925 
Q 5700 1600 5700 1200 
L 5700 350 
Q 5700 -125 5725 -475 
L 5225 -475 
L 5225 0 
L 3525 0 
L 3525 -525 
L 3025 -525 
Q 3050 125 3050 325 
L 3050 1250 
Q 3050 1550 3025 1925 
L 5725 1925 
z
M 1900 4850 
Q 1700 4600 1475 4200 
Q 1250 3800 925 3200 
Q 1475 3225 1725 3225 
Q 1950 3625 2100 4000 
Q 2350 3825 2650 3675 
Q 2525 3575 2212 3125 
Q 1900 2675 1225 1650 
Q 2050 1775 2525 1850 
Q 2450 1575 2450 1375 
Q 2225 1350 1650 1275 
Q 1075 1200 525 1050 
Q 425 1300 350 1550 
Q 650 1625 950 2012 
Q 1250 2400 1475 2825 
Q 1300 2825 962 2787 
Q 625 2750 375 2675 
Q 300 2925 225 3150 
Q 500 3375 812 3925 
Q 1125 4475 1300 5125 
Q 1600 4975 1900 4850 
z
M 4075 4175 
Q 4075 4600 4050 5175 
L 4575 5175 
Q 4550 4725 4550 4175 
L 5275 4175 
Q 5750 4175 6150 4200 
L 6150 3750 
Q 5750 3775 5300 3775 
L 4550 3775 
L 4550 2950 
L 5125 2950 
Q 5475 2950 5825 2975 
L 5825 2525 
Q 5525 2550 5100 2550 
L 3650 2550 
Q 3225 2550 2900 2525 
L 2900 2975 
Q 3225 2950 3600 2950 
L 4075 2950 
L 4075 3775 
L 3525 3775 
Q 3075 3775 2675 3750 
L 2675 4200 
Q 3000 4175 3475 4175 
L 4075 4175 
z
M 5225 400 
L 5225 1525 
L 3525 1525 
L 3525 400 
L 5225 400 
z
M 2575 650 
Q 2500 425 2525 175 
Q 2050 100 1450 0 
Q 850 -100 425 -225 
Q 325 100 225 350 
Q 750 375 1175 437 
Q 1600 500 2575 650 
z
" transform="scale(0.015625)"/>
      <path id="SimHei-6784" d="M 2250 1625 
Q 2050 2100 1825 2475 
L 1825 575 
Q 1825 50 1850 -500 
L 1325 -500 
Q 1350 75 1350 575 
L 1350 2375 
Q 1075 1750 525 1000 
Q 375 1200 175 1400 
Q 625 1900 912 2512 
Q 1200 3125 1250 3500 
Q 850 3500 475 3475 
L 475 3925 
Q 850 3900 1350 3900 
L 1350 4475 
Q 1350 4850 1325 5150 
L 1850 5150 
Q 1825 4900 1825 4475 
L 1825 3900 
Q 2150 3900 2525 3925 
L 2525 3475 
Q 2150 3500 1825 3500 
L 1825 2525 
Q 2025 2625 2225 2750 
Q 2475 2300 2700 1875 
Q 2475 1775 2250 1625 
z
M 4000 5050 
Q 3875 4875 3762 4625 
Q 3650 4375 3550 4125 
L 6025 4125 
Q 6000 3750 5975 3200 
Q 5975 1675 5875 350 
Q 5775 -200 5462 -337 
Q 5150 -475 4500 -525 
Q 4450 -250 4300 50 
Q 4825 25 5100 75 
Q 5375 125 5425 725 
Q 5525 2125 5500 3700 
L 3375 3700 
Q 3150 3200 2875 2750 
Q 2675 2900 2450 2975 
Q 2825 3525 3075 4150 
Q 3325 4775 3425 5250 
Q 3725 5100 4000 5050 
z
M 4450 1050 
Q 4175 1025 3662 950 
Q 3150 875 2800 725 
Q 2700 1025 2575 1300 
Q 2725 1350 2925 1675 
Q 3125 2000 3250 2337 
Q 3375 2675 3500 3150 
Q 3800 3025 4075 2875 
Q 3925 2725 3637 2162 
Q 3350 1600 3175 1350 
Q 3725 1375 4375 1425 
Q 4275 1775 4125 2175 
L 4625 2325 
Q 4775 1900 4900 1525 
Q 5025 1150 5075 800 
Q 4800 750 4550 650 
Q 4500 875 4450 1050 
z
" transform="scale(0.015625)"/>
     </defs>
     <use xlink:href="#SimHei-94f6"/>
     <use xlink:href="#SimHei-6cb3" transform="translate(100 0)"/>
     <use xlink:href="#SimHei-89d2" transform="translate(200 0)"/>
     <use xlink:href="#SimHei-8272" transform="translate(300 0)"/>
     <use xlink:href="#SimHei-8bc4" transform="translate(400 0)"/>
     <use xlink:href="#SimHei-4ef7" transform="translate(500 0)"/>
     <use xlink:href="#SimHei-5173" transform="translate(600 0)"/>
     <use xlink:href="#SimHei-7cfb" transform="translate(700 0)"/>
     <use xlink:href="#SimHei-793e" transform="translate(800 0)"/>
     <use xlink:href="#SimHei-533a" transform="translate(900 0)"/>
     <use xlink:href="#SimHei-7ed3" transform="translate(1000 0)"/>
     <use xlink:href="#SimHei-6784" transform="translate(1100 0)"/>
    </g>
   </g>
  </g>
 </g>
 <defs>
  <clipPath id="pe895896623">
   <rect x="135" y="86.4" width="837" height="554.4"/>
  </clipPath>
 </defs>
</svg>
