<?xml version="1.0" encoding="utf-8" standalone="no"?>
<!DOCTYPE svg PUBLIC "-//W3C//DTD SVG 1.1//EN"
  "http://www.w3.org/Graphics/SVG/1.1/DTD/svg11.dtd">
<svg xmlns:xlink="http://www.w3.org/1999/xlink" width="864pt" height="360pt" viewBox="0 0 864 360" xmlns="http://www.w3.org/2000/svg" version="1.1">
 <metadata>
  <rdf:RDF xmlns:dc="http://purl.org/dc/elements/1.1/" xmlns:cc="http://creativecommons.org/ns#" xmlns:rdf="http://www.w3.org/1999/02/22-rdf-syntax-ns#">
   <cc:Work>
    <dc:type rdf:resource="http://purl.org/dc/dcmitype/StillImage"/>
    <dc:date>2025-06-29T06:06:20.311759</dc:date>
    <dc:format>image/svg+xml</dc:format>
    <dc:creator>
     <cc:Agent>
      <dc:title>Matplotlib v3.10.3, https://matplotlib.org/</dc:title>
     </cc:Agent>
    </dc:creator>
   </cc:Work>
  </rdf:RDF>
 </metadata>
 <defs>
  <style type="text/css">*{stroke-linejoin: round; stroke-linecap: butt}</style>
 </defs>
 <g id="figure_1">
  <g id="patch_1">
   <path d="M 0 360 
L 864 360 
L 864 0 
L 0 0 
z
" style="fill: #ffffff"/>
  </g>
  <g id="axes_1">
   <g id="patch_2">
    <path d="M 45.11 315.16 
L 422.505 315.16 
L 422.505 27.92625 
L 45.11 27.92625 
z
" style="fill: #ffffff"/>
   </g>
   <g id="patch_3">
    <path d="M 62.264318 315.16 
L 79.418636 315.16 
L 79.418636 223.974683 
L 62.264318 223.974683 
z
" clip-path="url(#p84f7989286)" style="fill: #87ceeb; fill-opacity: 0.5; stroke: #000000; stroke-linejoin: miter"/>
   </g>
   <g id="patch_4">
    <path d="M 79.418636 315.16 
L 96.572955 315.16 
L 96.572955 178.382024 
L 79.418636 178.382024 
z
" clip-path="url(#p84f7989286)" style="fill: #87ceeb; fill-opacity: 0.5; stroke: #000000; stroke-linejoin: miter"/>
   </g>
   <g id="patch_5">
    <path d="M 96.572955 315.16 
L 113.727273 315.16 
L 113.727273 315.16 
L 96.572955 315.16 
z
" clip-path="url(#p84f7989286)" style="fill: #87ceeb; fill-opacity: 0.5; stroke: #000000; stroke-linejoin: miter"/>
   </g>
   <g id="patch_6">
    <path d="M 113.727273 315.16 
L 130.881591 315.16 
L 130.881591 64.400377 
L 113.727273 64.400377 
z
" clip-path="url(#p84f7989286)" style="fill: #87ceeb; fill-opacity: 0.5; stroke: #000000; stroke-linejoin: miter"/>
   </g>
   <g id="patch_7">
    <path d="M 130.881591 315.16 
L 148.035909 315.16 
L 148.035909 41.604048 
L 130.881591 41.604048 
z
" clip-path="url(#p84f7989286)" style="fill: #87ceeb; fill-opacity: 0.5; stroke: #000000; stroke-linejoin: miter"/>
   </g>
   <g id="patch_8">
    <path d="M 148.035909 315.16 
L 165.190227 315.16 
L 165.190227 315.16 
L 148.035909 315.16 
z
" clip-path="url(#p84f7989286)" style="fill: #87ceeb; fill-opacity: 0.5; stroke: #000000; stroke-linejoin: miter"/>
   </g>
   <g id="patch_9">
    <path d="M 165.190227 315.16 
L 182.344545 315.16 
L 182.344545 132.789365 
L 165.190227 132.789365 
z
" clip-path="url(#p84f7989286)" style="fill: #87ceeb; fill-opacity: 0.5; stroke: #000000; stroke-linejoin: miter"/>
   </g>
   <g id="patch_10">
    <path d="M 182.344545 315.16 
L 199.498864 315.16 
L 199.498864 41.604048 
L 182.344545 41.604048 
z
" clip-path="url(#p84f7989286)" style="fill: #87ceeb; fill-opacity: 0.5; stroke: #000000; stroke-linejoin: miter"/>
   </g>
   <g id="patch_11">
    <path d="M 199.498864 315.16 
L 216.653182 315.16 
L 216.653182 315.16 
L 199.498864 315.16 
z
" clip-path="url(#p84f7989286)" style="fill: #87ceeb; fill-opacity: 0.5; stroke: #000000; stroke-linejoin: miter"/>
   </g>
   <g id="patch_12">
    <path d="M 216.653182 315.16 
L 233.8075 315.16 
L 233.8075 246.771012 
L 216.653182 246.771012 
z
" clip-path="url(#p84f7989286)" style="fill: #87ceeb; fill-opacity: 0.5; stroke: #000000; stroke-linejoin: miter"/>
   </g>
   <g id="patch_13">
    <path d="M 233.8075 315.16 
L 250.961818 315.16 
L 250.961818 246.771012 
L 233.8075 246.771012 
z
" clip-path="url(#p84f7989286)" style="fill: #87ceeb; fill-opacity: 0.5; stroke: #000000; stroke-linejoin: miter"/>
   </g>
   <g id="patch_14">
    <path d="M 250.961818 315.16 
L 268.116136 315.16 
L 268.116136 315.16 
L 250.961818 315.16 
z
" clip-path="url(#p84f7989286)" style="fill: #87ceeb; fill-opacity: 0.5; stroke: #000000; stroke-linejoin: miter"/>
   </g>
   <g id="patch_15">
    <path d="M 268.116136 315.16 
L 285.270455 315.16 
L 285.270455 292.363671 
L 268.116136 292.363671 
z
" clip-path="url(#p84f7989286)" style="fill: #87ceeb; fill-opacity: 0.5; stroke: #000000; stroke-linejoin: miter"/>
   </g>
   <g id="patch_16">
    <path d="M 285.270455 315.16 
L 302.424773 315.16 
L 302.424773 246.771012 
L 285.270455 246.771012 
z
" clip-path="url(#p84f7989286)" style="fill: #87ceeb; fill-opacity: 0.5; stroke: #000000; stroke-linejoin: miter"/>
   </g>
   <g id="patch_17">
    <path d="M 302.424773 315.16 
L 319.579091 315.16 
L 319.579091 315.16 
L 302.424773 315.16 
z
" clip-path="url(#p84f7989286)" style="fill: #87ceeb; fill-opacity: 0.5; stroke: #000000; stroke-linejoin: miter"/>
   </g>
   <g id="patch_18">
    <path d="M 319.579091 315.16 
L 336.733409 315.16 
L 336.733409 292.363671 
L 319.579091 292.363671 
z
" clip-path="url(#p84f7989286)" style="fill: #87ceeb; fill-opacity: 0.5; stroke: #000000; stroke-linejoin: miter"/>
   </g>
   <g id="patch_19">
    <path d="M 336.733409 315.16 
L 353.887727 315.16 
L 353.887727 315.16 
L 336.733409 315.16 
z
" clip-path="url(#p84f7989286)" style="fill: #87ceeb; fill-opacity: 0.5; stroke: #000000; stroke-linejoin: miter"/>
   </g>
   <g id="patch_20">
    <path d="M 353.887727 315.16 
L 371.042045 315.16 
L 371.042045 315.16 
L 353.887727 315.16 
z
" clip-path="url(#p84f7989286)" style="fill: #87ceeb; fill-opacity: 0.5; stroke: #000000; stroke-linejoin: miter"/>
   </g>
   <g id="patch_21">
    <path d="M 371.042045 315.16 
L 388.196364 315.16 
L 388.196364 292.363671 
L 371.042045 292.363671 
z
" clip-path="url(#p84f7989286)" style="fill: #87ceeb; fill-opacity: 0.5; stroke: #000000; stroke-linejoin: miter"/>
   </g>
   <g id="patch_22">
    <path d="M 388.196364 315.16 
L 405.350682 315.16 
L 405.350682 292.363671 
L 388.196364 292.363671 
z
" clip-path="url(#p84f7989286)" style="fill: #87ceeb; fill-opacity: 0.5; stroke: #000000; stroke-linejoin: miter"/>
   </g>
   <g id="matplotlib.axis_1">
    <g id="xtick_1">
     <g id="line2d_1">
      <defs>
       <path id="mffdaa34513" d="M 0 0 
L 0 3.5 
" style="stroke: #000000; stroke-width: 0.8"/>
      </defs>
      <g>
       <use xlink:href="#mffdaa34513" x="88.655577" y="315.16" style="stroke: #000000; stroke-width: 0.8"/>
      </g>
     </g>
     <g id="text_1">
      <!-- 2 -->
      <g transform="translate(85.723546 330.15375) scale(0.1 -0.1)">
       <defs>
        <path id="MicrosoftYaHei-32" d="M 2666 3572 
Q 2666 3963 2419 4186 
Q 2172 4409 1747 4409 
Q 1447 4409 1140 4256 
Q 834 4103 569 3819 
L 569 4413 
Q 806 4659 1107 4790 
Q 1409 4922 1816 4922 
Q 2472 4922 2872 4570 
Q 3272 4219 3272 3619 
Q 3272 3084 3026 2693 
Q 2781 2303 2188 1894 
Q 1581 1475 1376 1294 
Q 1172 1113 1090 947 
Q 1009 781 1009 544 
L 3416 544 
L 3416 0 
L 372 0 
L 372 241 
Q 372 659 486 951 
Q 600 1244 862 1520 
Q 1125 1797 1681 2184 
Q 2250 2584 2458 2886 
Q 2666 3188 2666 3572 
z
" transform="scale(0.015625)"/>
       </defs>
       <use xlink:href="#MicrosoftYaHei-32"/>
      </g>
     </g>
    </g>
    <g id="xtick_2">
     <g id="line2d_2">
      <g>
       <use xlink:href="#mffdaa34513" x="141.438094" y="315.16" style="stroke: #000000; stroke-width: 0.8"/>
      </g>
     </g>
     <g id="text_2">
      <!-- 4 -->
      <g transform="translate(138.506063 330.15375) scale(0.1 -0.1)">
       <defs>
        <path id="MicrosoftYaHei-34" d="M 2906 4841 
L 2906 1644 
L 3631 1644 
L 3631 1138 
L 2906 1138 
L 2906 0 
L 2313 0 
L 2313 1138 
L 53 1138 
L 53 1616 
Q 656 2294 1265 3178 
Q 1875 4063 2272 4841 
L 2906 4841 
z
M 741 1644 
L 2313 1644 
L 2313 3950 
Q 1988 3366 1616 2817 
Q 1244 2269 741 1644 
z
" transform="scale(0.015625)"/>
       </defs>
       <use xlink:href="#MicrosoftYaHei-34"/>
      </g>
     </g>
    </g>
    <g id="xtick_3">
     <g id="line2d_3">
      <g>
       <use xlink:href="#mffdaa34513" x="194.220612" y="315.16" style="stroke: #000000; stroke-width: 0.8"/>
      </g>
     </g>
     <g id="text_3">
      <!-- 6 -->
      <g transform="translate(191.288581 330.15375) scale(0.1 -0.1)">
       <defs>
        <path id="MicrosoftYaHei-36" d="M 3181 4219 
Q 2803 4413 2391 4413 
Q 1763 4413 1381 3866 
Q 1000 3319 994 2372 
L 1009 2372 
Q 1353 3038 2106 3038 
Q 2734 3038 3109 2628 
Q 3484 2219 3484 1541 
Q 3484 831 3051 375 
Q 2619 -81 1947 -81 
Q 1209 -81 789 495 
Q 369 1072 369 2131 
Q 369 3413 920 4167 
Q 1472 4922 2372 4922 
Q 2888 4922 3181 4781 
L 3181 4219 
z
M 1031 1584 
Q 1031 1106 1286 765 
Q 1541 425 1963 425 
Q 2363 425 2613 719 
Q 2863 1013 2863 1475 
Q 2863 1975 2627 2253 
Q 2391 2531 1956 2531 
Q 1544 2531 1287 2250 
Q 1031 1969 1031 1584 
z
" transform="scale(0.015625)"/>
       </defs>
       <use xlink:href="#MicrosoftYaHei-36"/>
      </g>
     </g>
    </g>
    <g id="xtick_4">
     <g id="line2d_4">
      <g>
       <use xlink:href="#mffdaa34513" x="247.003129" y="315.16" style="stroke: #000000; stroke-width: 0.8"/>
      </g>
     </g>
     <g id="text_4">
      <!-- 8 -->
      <g transform="translate(244.071098 330.15375) scale(0.1 -0.1)">
       <defs>
        <path id="MicrosoftYaHei-38" d="M 306 1350 
Q 306 1769 556 2122 
Q 806 2475 1200 2625 
Q 884 2803 700 3081 
Q 516 3359 516 3684 
Q 516 4028 692 4312 
Q 869 4597 1183 4759 
Q 1497 4922 1875 4922 
Q 2256 4922 2572 4761 
Q 2888 4600 3063 4315 
Q 3238 4031 3238 3684 
Q 3238 3366 3058 3086 
Q 2878 2806 2559 2625 
Q 2953 2472 3200 2119 
Q 3447 1766 3447 1350 
Q 3447 938 3250 611 
Q 3053 284 2690 103 
Q 2328 -78 1875 -78 
Q 1425 -78 1065 103 
Q 706 284 506 612 
Q 306 941 306 1350 
z
M 906 1378 
Q 906 947 1172 687 
Q 1438 428 1878 428 
Q 2309 428 2582 692 
Q 2856 956 2856 1378 
Q 2856 1778 2579 2051 
Q 2303 2325 1878 2325 
Q 1456 2325 1181 2058 
Q 906 1791 906 1378 
z
M 1081 3634 
Q 1081 3309 1312 3076 
Q 1544 2844 1878 2844 
Q 2206 2844 2445 3078 
Q 2684 3313 2684 3634 
Q 2684 3963 2454 4191 
Q 2225 4419 1878 4419 
Q 1534 4419 1307 4195 
Q 1081 3972 1081 3634 
z
" transform="scale(0.015625)"/>
       </defs>
       <use xlink:href="#MicrosoftYaHei-38"/>
      </g>
     </g>
    </g>
    <g id="xtick_5">
     <g id="line2d_5">
      <g>
       <use xlink:href="#mffdaa34513" x="299.785647" y="315.16" style="stroke: #000000; stroke-width: 0.8"/>
      </g>
     </g>
     <g id="text_5">
      <!-- 10 -->
      <g transform="translate(293.921584 330.15375) scale(0.1 -0.1)">
       <defs>
        <path id="MicrosoftYaHei-31" d="M 1781 0 
L 1781 4141 
Q 1638 3997 1295 3819 
Q 953 3641 663 3569 
L 663 4169 
Q 1047 4275 1484 4508 
Q 1922 4741 2156 4947 
L 2388 4947 
L 2388 0 
L 1781 0 
z
" transform="scale(0.015625)"/>
        <path id="MicrosoftYaHei-30" d="M 284 2325 
Q 284 3606 709 4264 
Q 1134 4922 1941 4922 
Q 3478 4922 3478 2441 
Q 3478 1216 3045 567 
Q 2613 -81 1831 -81 
Q 1094 -81 689 534 
Q 284 1150 284 2325 
z
M 909 2353 
Q 909 425 1888 425 
Q 2850 425 2850 2384 
Q 2850 4413 1906 4413 
Q 909 4413 909 2353 
z
" transform="scale(0.015625)"/>
       </defs>
       <use xlink:href="#MicrosoftYaHei-31"/>
       <use xlink:href="#MicrosoftYaHei-30" transform="translate(58.642578 0)"/>
      </g>
     </g>
    </g>
    <g id="xtick_6">
     <g id="line2d_6">
      <g>
       <use xlink:href="#mffdaa34513" x="352.568164" y="315.16" style="stroke: #000000; stroke-width: 0.8"/>
      </g>
     </g>
     <g id="text_6">
      <!-- 12 -->
      <g transform="translate(346.704102 330.15375) scale(0.1 -0.1)">
       <use xlink:href="#MicrosoftYaHei-31"/>
       <use xlink:href="#MicrosoftYaHei-32" transform="translate(58.642578 0)"/>
      </g>
     </g>
    </g>
    <g id="xtick_7">
     <g id="line2d_7">
      <g>
       <use xlink:href="#mffdaa34513" x="405.350682" y="315.16" style="stroke: #000000; stroke-width: 0.8"/>
      </g>
     </g>
     <g id="text_7">
      <!-- 14 -->
      <g transform="translate(399.486619 330.15375) scale(0.1 -0.1)">
       <use xlink:href="#MicrosoftYaHei-31"/>
       <use xlink:href="#MicrosoftYaHei-34" transform="translate(58.642578 0)"/>
      </g>
     </g>
    </g>
    <g id="text_8">
     <!-- 入度 -->
     <g transform="translate(223.8075 344.633438) scale(0.1 -0.1)">
      <defs>
       <path id="MicrosoftYaHei-5165" d="M 1831 4947 
L 2244 5241 
Q 2944 4809 3781 3028 
Q 4950 472 6319 -91 
L 5881 -641 
Q 4513 172 3350 2784 
Q 3256 2994 3166 3184 
Q 2441 700 469 -678 
Q 300 -428 88 -209 
Q 2116 1069 2819 3834 
Q 2328 4653 1831 4947 
z
" transform="scale(0.015625)"/>
       <path id="MicrosoftYaHei-5ea6" d="M 1550 1216 
L 1550 1628 
L 5469 1628 
L 5469 1222 
Q 4903 613 4147 163 
Q 5050 -200 6263 -309 
L 6019 -797 
Q 4625 -603 3644 -109 
Q 2600 -619 1250 -866 
Q 1150 -666 994 -416 
Q 2231 -222 3166 166 
Q 2497 600 2066 1216 
L 1550 1216 
z
M 1363 3541 
L 2294 3541 
L 2294 4066 
L 2769 4066 
L 2769 3541 
L 4538 3541 
L 4538 4072 
L 5013 4072 
L 5013 3541 
L 6150 3541 
L 6150 3128 
L 5013 3128 
L 5013 1928 
L 4538 1928 
L 4538 2147 
L 2769 2147 
L 2769 1922 
L 2294 1922 
L 2294 3128 
L 1363 3128 
L 1363 3541 
z
M 3025 5172 
L 3481 5391 
Q 3694 5056 3909 4634 
L 6213 4634 
L 6213 4197 
L 1225 4197 
L 1225 2316 
Q 1225 178 394 -872 
Q 238 -666 38 -447 
Q 725 397 738 2347 
L 738 4634 
L 3331 4634 
Q 3188 4909 3025 5172 
z
M 2769 2547 
L 4538 2547 
L 4538 3128 
L 2769 3128 
L 2769 2547 
z
M 4819 1216 
L 2588 1216 
Q 3031 728 3656 391 
Q 4334 741 4819 1216 
z
" transform="scale(0.015625)"/>
      </defs>
      <use xlink:href="#MicrosoftYaHei-5165"/>
      <use xlink:href="#MicrosoftYaHei-5ea6" transform="translate(100 0)"/>
     </g>
    </g>
   </g>
   <g id="matplotlib.axis_2">
    <g id="ytick_1">
     <g id="line2d_8">
      <defs>
       <path id="m7ec5cc467a" d="M 0 0 
L -3.5 0 
" style="stroke: #000000; stroke-width: 0.8"/>
      </defs>
      <g>
       <use xlink:href="#m7ec5cc467a" x="45.11" y="315.16" style="stroke: #000000; stroke-width: 0.8"/>
      </g>
     </g>
     <g id="text_9">
      <!-- 0 -->
      <g transform="translate(32.245938 319.156875) scale(0.1 -0.1)">
       <use xlink:href="#MicrosoftYaHei-30"/>
      </g>
     </g>
    </g>
    <g id="ytick_2">
     <g id="line2d_9">
      <g>
       <use xlink:href="#m7ec5cc467a" x="45.11" y="269.567341" style="stroke: #000000; stroke-width: 0.8"/>
      </g>
     </g>
     <g id="text_10">
      <!-- 2 -->
      <g transform="translate(32.245938 273.564216) scale(0.1 -0.1)">
       <use xlink:href="#MicrosoftYaHei-32"/>
      </g>
     </g>
    </g>
    <g id="ytick_3">
     <g id="line2d_10">
      <g>
       <use xlink:href="#m7ec5cc467a" x="45.11" y="223.974683" style="stroke: #000000; stroke-width: 0.8"/>
      </g>
     </g>
     <g id="text_11">
      <!-- 4 -->
      <g transform="translate(32.245938 227.971558) scale(0.1 -0.1)">
       <use xlink:href="#MicrosoftYaHei-34"/>
      </g>
     </g>
    </g>
    <g id="ytick_4">
     <g id="line2d_11">
      <g>
       <use xlink:href="#m7ec5cc467a" x="45.11" y="178.382024" style="stroke: #000000; stroke-width: 0.8"/>
      </g>
     </g>
     <g id="text_12">
      <!-- 6 -->
      <g transform="translate(32.245938 182.378899) scale(0.1 -0.1)">
       <use xlink:href="#MicrosoftYaHei-36"/>
      </g>
     </g>
    </g>
    <g id="ytick_5">
     <g id="line2d_12">
      <g>
       <use xlink:href="#m7ec5cc467a" x="45.11" y="132.789365" style="stroke: #000000; stroke-width: 0.8"/>
      </g>
     </g>
     <g id="text_13">
      <!-- 8 -->
      <g transform="translate(32.245938 136.78624) scale(0.1 -0.1)">
       <use xlink:href="#MicrosoftYaHei-38"/>
      </g>
     </g>
    </g>
    <g id="ytick_6">
     <g id="line2d_13">
      <g>
       <use xlink:href="#m7ec5cc467a" x="45.11" y="87.196706" style="stroke: #000000; stroke-width: 0.8"/>
      </g>
     </g>
     <g id="text_14">
      <!-- 10 -->
      <g transform="translate(26.381875 91.193581) scale(0.1 -0.1)">
       <use xlink:href="#MicrosoftYaHei-31"/>
       <use xlink:href="#MicrosoftYaHei-30" transform="translate(58.642578 0)"/>
      </g>
     </g>
    </g>
    <g id="ytick_7">
     <g id="line2d_14">
      <g>
       <use xlink:href="#m7ec5cc467a" x="45.11" y="41.604048" style="stroke: #000000; stroke-width: 0.8"/>
      </g>
     </g>
     <g id="text_15">
      <!-- 12 -->
      <g transform="translate(26.381875 45.600923) scale(0.1 -0.1)">
       <use xlink:href="#MicrosoftYaHei-31"/>
       <use xlink:href="#MicrosoftYaHei-32" transform="translate(58.642578 0)"/>
      </g>
     </g>
    </g>
    <g id="text_16">
     <!-- 频数 -->
     <g transform="translate(19.895938 181.543125) rotate(-90) scale(0.1 -0.1)">
      <defs>
       <path id="MicrosoftYaHei-9891" d="M 3200 3716 
L 4113 3716 
L 4269 4522 
L 2938 4522 
L 2938 4947 
L 6294 4947 
L 6294 4522 
L 4788 4522 
L 4600 3716 
L 6019 3716 
L 6019 478 
L 5550 478 
L 5550 3291 
L 3669 3291 
L 3669 478 
L 3200 478 
L 3200 3716 
z
M 94 3034 
L 525 3034 
L 525 4691 
L 963 4691 
L 963 3034 
L 1600 3034 
L 1600 5272 
L 2050 5272 
L 2050 4291 
L 2925 4291 
L 2925 3878 
L 2050 3878 
L 2050 3034 
L 3006 3034 
L 3006 2609 
L 94 2609 
L 94 3034 
z
M 4356 2884 
L 4825 2884 
L 4825 1934 
Q 4825 1216 4650 716 
Q 5619 128 6375 -403 
L 6075 -841 
Q 5306 -234 4450 303 
Q 4413 241 4369 184 
Q 3913 -447 2763 -884 
Q 2625 -691 2444 -478 
Q 3525 -72 3944 447 
Q 4356 947 4356 1966 
L 4356 2884 
z
M 1550 2459 
L 2000 2459 
L 2000 853 
Q 2394 1309 2663 1866 
L 3100 1609 
Q 2206 -47 394 -909 
Q 275 -741 69 -503 
Q 1125 -47 1819 659 
L 1550 659 
L 1550 2459 
z
M 38 578 
Q 381 1191 669 2084 
L 1113 1947 
Q 806 1028 456 366 
Q 269 472 38 578 
z
" transform="scale(0.015625)"/>
       <path id="MicrosoftYaHei-6570" d="M 4175 5303 
L 4675 5228 
Q 4544 4622 4369 4097 
L 6281 4097 
L 6281 3672 
L 5888 3672 
Q 5731 1834 5088 753 
Q 5594 66 6375 -372 
Q 6175 -647 6038 -866 
Q 5275 -372 4769 309 
Q 4194 -403 3400 -928 
Q 3263 -747 3044 -534 
Q 3919 41 4463 772 
Q 3956 1647 3794 2791 
Q 3663 2559 3519 2359 
Q 3394 2541 3206 2759 
Q 3931 3803 4175 5303 
z
M 150 1697 
L 1100 1697 
Q 1238 1934 1369 2184 
L 1819 2041 
Q 1719 1866 1619 1697 
L 3150 1697 
L 3150 1291 
Q 2913 678 2431 216 
Q 2775 53 3131 -109 
L 2856 -541 
Q 2469 -322 2050 -103 
Q 1344 -609 269 -903 
Q 169 -703 56 -466 
Q 969 -259 1600 128 
Q 1063 403 475 691 
Q 675 978 863 1284 
L 150 1284 
L 150 1697 
z
M 219 3847 
L 1656 3847 
L 1656 5247 
L 2119 5247 
L 2119 3847 
L 3319 3847 
L 3319 3434 
L 2119 3434 
L 2119 3053 
L 2306 3266 
Q 2888 2841 3281 2516 
L 2981 2166 
Q 2638 2491 2119 2897 
L 2119 2184 
L 1656 2184 
L 1656 3059 
Q 1088 2466 331 2016 
Q 213 2197 63 2397 
Q 850 2822 1506 3434 
L 219 3434 
L 219 3847 
z
M 5388 3672 
L 4219 3672 
Q 4188 3591 4150 3516 
Q 4263 2191 4775 1247 
Q 5275 2159 5388 3672 
z
M 1088 834 
Q 1531 634 2000 416 
Q 2431 784 2675 1284 
L 1375 1284 
Q 1231 1053 1088 834 
z
M 3038 5091 
L 3425 4834 
Q 3081 4384 2738 4003 
Q 2594 4128 2400 4266 
Q 2725 4647 3038 5091 
z
M 381 4816 
L 738 5059 
Q 1019 4716 1319 4322 
L 931 4047 
Q 656 4453 381 4816 
z
" transform="scale(0.015625)"/>
      </defs>
      <use xlink:href="#MicrosoftYaHei-9891"/>
      <use xlink:href="#MicrosoftYaHei-6570" transform="translate(100 0)"/>
     </g>
    </g>
   </g>
   <g id="line2d_15">
    <path d="M 62.264318 258.339566 
L 67.436474 250.495756 
L 74.332683 239.640515 
L 93.297256 209.421584 
L 98.469412 201.680708 
L 103.641568 194.423223 
L 107.089672 189.924205 
L 110.537776 185.742886 
L 113.985881 181.914551 
L 117.433985 178.469176 
L 120.882089 175.430286 
L 124.330193 172.814118 
L 127.778297 170.629142 
L 131.226401 168.876036 
L 134.674505 167.548136 
L 138.12261 166.632361 
L 141.570714 166.110571 
L 145.018818 165.961245 
L 148.466922 166.161385 
L 151.915026 166.688458 
L 155.36313 167.522217 
L 158.811235 168.646232 
L 162.259339 170.048968 
L 165.707443 171.724301 
L 169.155547 173.671388 
L 172.603651 175.893897 
L 176.051755 178.39864 
L 179.49986 181.193729 
L 182.947964 184.286418 
L 186.396068 187.680849 
L 189.844172 191.375902 
L 193.292276 195.363377 
L 196.74038 199.62668 
L 201.912537 206.480203 
L 207.084693 213.770595 
L 215.704953 226.440025 
L 224.325214 238.992861 
L 229.49737 246.110742 
L 232.945474 250.586387 
L 236.393578 254.804337 
L 239.841682 258.737863 
L 243.289786 262.368732 
L 246.737891 265.687006 
L 250.185995 268.690563 
L 253.634099 271.384406 
L 257.082203 273.779859 
L 260.530307 275.893709 
L 263.978411 277.747347 
L 267.426516 279.365915 
L 270.87462 280.777479 
L 276.046776 282.573034 
L 281.218932 284.077136 
L 288.11514 285.811129 
L 303.631609 289.592895 
L 310.527817 291.515093 
L 319.148078 294.160523 
L 334.664547 299.001263 
L 341.560755 300.845146 
L 346.732911 302.000023 
L 351.905067 302.931795 
L 357.077224 303.63838 
L 362.24938 304.138444 
L 369.145588 304.548946 
L 379.489901 304.866493 
L 389.834213 305.216613 
L 396.730421 305.639246 
L 403.62663 306.272757 
L 405.350682 306.464807 
L 405.350682 306.464807 
" clip-path="url(#p84f7989286)" style="fill: none; stroke: #87ceeb; stroke-width: 1.5; stroke-linecap: square"/>
   </g>
   <g id="patch_23">
    <path d="M 45.11 315.16 
L 45.11 27.92625 
" style="fill: none; stroke: #000000; stroke-width: 0.8; stroke-linejoin: miter; stroke-linecap: square"/>
   </g>
   <g id="patch_24">
    <path d="M 422.505 315.16 
L 422.505 27.92625 
" style="fill: none; stroke: #000000; stroke-width: 0.8; stroke-linejoin: miter; stroke-linecap: square"/>
   </g>
   <g id="patch_25">
    <path d="M 45.11 315.16 
L 422.505 315.16 
" style="fill: none; stroke: #000000; stroke-width: 0.8; stroke-linejoin: miter; stroke-linecap: square"/>
   </g>
   <g id="patch_26">
    <path d="M 45.11 27.92625 
L 422.505 27.92625 
" style="fill: none; stroke: #000000; stroke-width: 0.8; stroke-linejoin: miter; stroke-linecap: square"/>
   </g>
   <g id="text_17">
    <!-- 入度分布 -->
    <g transform="translate(205.8075 21.92625) scale(0.14 -0.14)">
     <defs>
      <path id="SimHei-5165" d="M 5650 -375 
Q 5050 25 4500 650 
Q 3950 1275 3275 3050 
Q 2575 975 675 -475 
Q 575 -225 225 50 
Q 1850 825 2975 3525 
Q 2900 3725 2525 4125 
Q 2150 4525 1750 4675 
Q 2025 4900 2175 5125 
Q 2800 4650 3175 4225 
Q 3550 3800 4125 2375 
Q 4700 950 6125 250 
Q 5775 0 5650 -375 
z
" transform="scale(0.015625)"/>
      <path id="SimHei-5ea6" d="M 1750 1675 
Q 2450 1650 2875 1650 
L 5200 1650 
Q 4975 1250 4650 850 
Q 4325 450 4025 200 
Q 4350 50 4950 -50 
Q 5550 -150 6100 -150 
Q 5950 -300 5825 -650 
Q 5100 -550 4550 -412 
Q 4000 -275 3625 -100 
Q 3100 -325 2587 -462 
Q 2075 -600 1525 -675 
Q 1450 -475 1225 -250 
Q 1675 -250 2250 -125 
Q 2825 0 3250 200 
Q 2825 550 2400 1275 
L 1750 1250 
L 1750 1675 
z
M 2975 5075 
Q 3250 5150 3475 5250 
Q 3625 4975 3775 4525 
L 4700 4525 
Q 4975 4525 5700 4550 
L 5700 4100 
Q 5000 4125 4650 4125 
L 1375 4125 
Q 1375 3000 1350 2312 
Q 1325 1625 1212 950 
Q 1100 275 725 -525 
Q 500 -375 250 -300 
Q 650 400 762 1075 
Q 875 1750 887 2800 
Q 900 3850 875 4525 
L 3200 4525 
Q 3100 4850 2975 5075 
z
M 2475 3300 
Q 2475 3700 2450 3925 
L 2975 3925 
Q 2950 3725 2950 3300 
L 4300 3300 
Q 4300 3700 4275 3950 
L 4800 3950 
Q 4775 3650 4775 3300 
Q 5325 3300 5725 3325 
L 5725 2900 
Q 5350 2925 4775 2925 
Q 4775 2250 4800 1950 
L 2450 1950 
Q 2475 2350 2475 2925 
Q 2175 2925 1600 2900 
L 1600 3325 
Q 2175 3300 2475 3300 
z
M 4300 2350 
L 4300 2925 
L 2950 2925 
L 2950 2350 
L 4300 2350 
z
M 2875 1275 
Q 3200 775 3650 425 
Q 4025 700 4425 1275 
L 2900 1275 
L 2875 1275 
z
" transform="scale(0.015625)"/>
      <path id="SimHei-5206" d="M 1000 -650 
Q 825 -375 575 -225 
Q 975 -75 1300 137 
Q 1625 350 1875 662 
Q 2125 975 2250 1350 
Q 2375 1725 2425 2275 
Q 1850 2275 1500 2250 
L 1500 2775 
Q 1900 2750 2525 2750 
L 5025 2750 
Q 4975 2375 4950 2100 
L 4750 250 
Q 4700 -200 4350 -350 
Q 4000 -500 3575 -525 
Q 3550 -275 3325 50 
Q 3850 25 4037 87 
Q 4225 150 4275 525 
L 4450 2275 
L 2950 2275 
Q 2875 1625 2737 1187 
Q 2600 750 2350 425 
Q 2100 100 1750 -175 
Q 1400 -450 1000 -650 
z
M 3950 5175 
Q 4125 4650 4662 3975 
Q 5200 3300 6175 2800 
Q 5975 2625 5775 2275 
Q 5325 2600 4987 2887 
Q 4650 3175 4425 3425 
Q 4200 3675 3925 4137 
Q 3650 4600 3475 5000 
Q 3750 5075 3950 5175 
z
M 2700 4825 
Q 2475 4425 2325 4125 
Q 2175 3825 2025 3587 
Q 1875 3350 1575 2950 
Q 1275 2550 850 2125 
Q 625 2350 400 2475 
Q 900 2925 1187 3300 
Q 1475 3675 1737 4112 
Q 2000 4550 2200 5075 
Q 2400 4925 2700 4825 
z
" transform="scale(0.015625)"/>
      <path id="SimHei-5e03" d="M 2375 4225 
Q 2650 4775 2775 5300 
Q 3125 5175 3400 5075 
Q 3275 4975 2950 4225 
L 4800 4225 
Q 5550 4225 6025 4250 
L 6025 3800 
L 2725 3800 
Q 2325 3100 1975 2675 
L 3275 2675 
Q 3275 3225 3250 3575 
L 3775 3575 
Q 3750 3225 3750 2675 
L 5500 2675 
Q 5475 2225 5475 1775 
L 5475 750 
Q 5475 275 5212 150 
Q 4950 25 4450 -25 
Q 4400 325 4225 550 
Q 4800 550 4912 625 
Q 5025 700 5000 1025 
L 5000 2250 
L 3750 2250 
L 3750 550 
Q 3750 25 3775 -600 
L 3250 -600 
Q 3275 25 3275 550 
L 3275 2250 
L 2100 2250 
L 2100 0 
L 1600 0 
Q 1625 525 1625 1025 
L 1625 2225 
Q 1300 1850 650 1275 
Q 475 1475 200 1650 
Q 750 2025 1262 2562 
Q 1775 3100 2150 3800 
L 1550 3800 
Q 925 3800 400 3775 
L 400 4250 
Q 925 4225 1550 4225 
L 2375 4225 
z
" transform="scale(0.015625)"/>
     </defs>
     <use xlink:href="#SimHei-5165"/>
     <use xlink:href="#SimHei-5ea6" transform="translate(100 0)"/>
     <use xlink:href="#SimHei-5206" transform="translate(200 0)"/>
     <use xlink:href="#SimHei-5e03" transform="translate(300 0)"/>
    </g>
   </g>
  </g>
  <g id="axes_2">
   <g id="patch_27">
    <path d="M 475.805 315.16 
L 853.2 315.16 
L 853.2 27.92625 
L 475.805 27.92625 
z
" style="fill: #ffffff"/>
   </g>
   <g id="patch_28">
    <path d="M 492.959318 315.16 
L 510.113636 315.16 
L 510.113636 269.567341 
L 492.959318 269.567341 
z
" clip-path="url(#p76e8a9686e)" style="fill: #fa8072; fill-opacity: 0.5; stroke: #000000; stroke-linejoin: miter"/>
   </g>
   <g id="patch_29">
    <path d="M 510.113636 315.16 
L 527.267955 315.16 
L 527.267955 315.16 
L 510.113636 315.16 
z
" clip-path="url(#p76e8a9686e)" style="fill: #fa8072; fill-opacity: 0.5; stroke: #000000; stroke-linejoin: miter"/>
   </g>
   <g id="patch_30">
    <path d="M 527.267955 315.16 
L 544.422273 315.16 
L 544.422273 178.382024 
L 527.267955 178.382024 
z
" clip-path="url(#p76e8a9686e)" style="fill: #fa8072; fill-opacity: 0.5; stroke: #000000; stroke-linejoin: miter"/>
   </g>
   <g id="patch_31">
    <path d="M 544.422273 315.16 
L 561.576591 315.16 
L 561.576591 315.16 
L 544.422273 315.16 
z
" clip-path="url(#p76e8a9686e)" style="fill: #fa8072; fill-opacity: 0.5; stroke: #000000; stroke-linejoin: miter"/>
   </g>
   <g id="patch_32">
    <path d="M 561.576591 315.16 
L 578.730909 315.16 
L 578.730909 315.16 
L 561.576591 315.16 
z
" clip-path="url(#p76e8a9686e)" style="fill: #fa8072; fill-opacity: 0.5; stroke: #000000; stroke-linejoin: miter"/>
   </g>
   <g id="patch_33">
    <path d="M 578.730909 315.16 
L 595.885227 315.16 
L 595.885227 41.604048 
L 578.730909 41.604048 
z
" clip-path="url(#p76e8a9686e)" style="fill: #fa8072; fill-opacity: 0.5; stroke: #000000; stroke-linejoin: miter"/>
   </g>
   <g id="patch_34">
    <path d="M 595.885227 315.16 
L 613.039545 315.16 
L 613.039545 315.16 
L 595.885227 315.16 
z
" clip-path="url(#p76e8a9686e)" style="fill: #fa8072; fill-opacity: 0.5; stroke: #000000; stroke-linejoin: miter"/>
   </g>
   <g id="patch_35">
    <path d="M 613.039545 315.16 
L 630.193864 315.16 
L 630.193864 315.16 
L 613.039545 315.16 
z
" clip-path="url(#p76e8a9686e)" style="fill: #fa8072; fill-opacity: 0.5; stroke: #000000; stroke-linejoin: miter"/>
   </g>
   <g id="patch_36">
    <path d="M 630.193864 315.16 
L 647.348182 315.16 
L 647.348182 147.986918 
L 630.193864 147.986918 
z
" clip-path="url(#p76e8a9686e)" style="fill: #fa8072; fill-opacity: 0.5; stroke: #000000; stroke-linejoin: miter"/>
   </g>
   <g id="patch_37">
    <path d="M 647.348182 315.16 
L 664.5025 315.16 
L 664.5025 315.16 
L 647.348182 315.16 
z
" clip-path="url(#p76e8a9686e)" style="fill: #fa8072; fill-opacity: 0.5; stroke: #000000; stroke-linejoin: miter"/>
   </g>
   <g id="patch_38">
    <path d="M 664.5025 315.16 
L 681.656818 315.16 
L 681.656818 315.16 
L 664.5025 315.16 
z
" clip-path="url(#p76e8a9686e)" style="fill: #fa8072; fill-opacity: 0.5; stroke: #000000; stroke-linejoin: miter"/>
   </g>
   <g id="patch_39">
    <path d="M 681.656818 315.16 
L 698.811136 315.16 
L 698.811136 132.789365 
L 681.656818 132.789365 
z
" clip-path="url(#p76e8a9686e)" style="fill: #fa8072; fill-opacity: 0.5; stroke: #000000; stroke-linejoin: miter"/>
   </g>
   <g id="patch_40">
    <path d="M 698.811136 315.16 
L 715.965455 315.16 
L 715.965455 315.16 
L 698.811136 315.16 
z
" clip-path="url(#p76e8a9686e)" style="fill: #fa8072; fill-opacity: 0.5; stroke: #000000; stroke-linejoin: miter"/>
   </g>
   <g id="patch_41">
    <path d="M 715.965455 315.16 
L 733.119773 315.16 
L 733.119773 315.16 
L 715.965455 315.16 
z
" clip-path="url(#p76e8a9686e)" style="fill: #fa8072; fill-opacity: 0.5; stroke: #000000; stroke-linejoin: miter"/>
   </g>
   <g id="patch_42">
    <path d="M 733.119773 315.16 
L 750.274091 315.16 
L 750.274091 193.579577 
L 733.119773 193.579577 
z
" clip-path="url(#p76e8a9686e)" style="fill: #fa8072; fill-opacity: 0.5; stroke: #000000; stroke-linejoin: miter"/>
   </g>
   <g id="patch_43">
    <path d="M 750.274091 315.16 
L 767.428409 315.16 
L 767.428409 315.16 
L 750.274091 315.16 
z
" clip-path="url(#p76e8a9686e)" style="fill: #fa8072; fill-opacity: 0.5; stroke: #000000; stroke-linejoin: miter"/>
   </g>
   <g id="patch_44">
    <path d="M 767.428409 315.16 
L 784.582727 315.16 
L 784.582727 315.16 
L 767.428409 315.16 
z
" clip-path="url(#p76e8a9686e)" style="fill: #fa8072; fill-opacity: 0.5; stroke: #000000; stroke-linejoin: miter"/>
   </g>
   <g id="patch_45">
    <path d="M 784.582727 315.16 
L 801.737045 315.16 
L 801.737045 284.764894 
L 784.582727 284.764894 
z
" clip-path="url(#p76e8a9686e)" style="fill: #fa8072; fill-opacity: 0.5; stroke: #000000; stroke-linejoin: miter"/>
   </g>
   <g id="patch_46">
    <path d="M 801.737045 315.16 
L 818.891364 315.16 
L 818.891364 315.16 
L 801.737045 315.16 
z
" clip-path="url(#p76e8a9686e)" style="fill: #fa8072; fill-opacity: 0.5; stroke: #000000; stroke-linejoin: miter"/>
   </g>
   <g id="patch_47">
    <path d="M 818.891364 315.16 
L 836.045682 315.16 
L 836.045682 269.567341 
L 818.891364 269.567341 
z
" clip-path="url(#p76e8a9686e)" style="fill: #fa8072; fill-opacity: 0.5; stroke: #000000; stroke-linejoin: miter"/>
   </g>
   <g id="matplotlib.axis_3">
    <g id="xtick_8">
     <g id="line2d_16">
      <g>
       <use xlink:href="#mffdaa34513" x="492.959318" y="315.16" style="stroke: #000000; stroke-width: 0.8"/>
      </g>
     </g>
     <g id="text_18">
      <!-- 2 -->
      <g transform="translate(490.027287 330.15375) scale(0.1 -0.1)">
       <use xlink:href="#MicrosoftYaHei-32"/>
      </g>
     </g>
    </g>
    <g id="xtick_9">
     <g id="line2d_17">
      <g>
       <use xlink:href="#mffdaa34513" x="541.971656" y="315.16" style="stroke: #000000; stroke-width: 0.8"/>
      </g>
     </g>
     <g id="text_19">
      <!-- 3 -->
      <g transform="translate(539.039625 330.15375) scale(0.1 -0.1)">
       <defs>
        <path id="MicrosoftYaHei-33" d="M 447 809 
Q 944 425 1569 425 
Q 2069 425 2361 670 
Q 2653 916 2653 1328 
Q 2653 2247 1338 2247 
L 934 2247 
L 934 2753 
L 1319 2753 
Q 2484 2753 2484 3616 
Q 2484 4413 1594 4413 
Q 1084 4413 634 4069 
L 634 4647 
Q 1109 4922 1744 4922 
Q 2363 4922 2738 4598 
Q 3113 4275 3113 3759 
Q 3113 2809 2144 2538 
L 2144 2525 
Q 2669 2469 2973 2155 
Q 3278 1841 3278 1372 
Q 3278 719 2808 319 
Q 2338 -81 1556 -81 
Q 869 -81 447 175 
L 447 809 
z
" transform="scale(0.015625)"/>
       </defs>
       <use xlink:href="#MicrosoftYaHei-33"/>
      </g>
     </g>
    </g>
    <g id="xtick_10">
     <g id="line2d_18">
      <g>
       <use xlink:href="#mffdaa34513" x="590.983994" y="315.16" style="stroke: #000000; stroke-width: 0.8"/>
      </g>
     </g>
     <g id="text_20">
      <!-- 4 -->
      <g transform="translate(588.051962 330.15375) scale(0.1 -0.1)">
       <use xlink:href="#MicrosoftYaHei-34"/>
      </g>
     </g>
    </g>
    <g id="xtick_11">
     <g id="line2d_19">
      <g>
       <use xlink:href="#mffdaa34513" x="639.996331" y="315.16" style="stroke: #000000; stroke-width: 0.8"/>
      </g>
     </g>
     <g id="text_21">
      <!-- 5 -->
      <g transform="translate(637.0643 330.15375) scale(0.1 -0.1)">
       <defs>
        <path id="MicrosoftYaHei-35" d="M 3294 1494 
Q 3294 784 2823 350 
Q 2353 -84 1559 -84 
Q 878 -84 544 119 
L 544 744 
Q 1034 425 1544 425 
Q 2050 425 2361 704 
Q 2672 984 2672 1447 
Q 2672 1909 2348 2167 
Q 2025 2425 1434 2425 
Q 978 2425 613 2384 
L 791 4841 
L 3053 4841 
L 3053 4303 
L 1306 4303 
L 1206 2931 
L 1647 2950 
Q 2416 2950 2855 2567 
Q 3294 2184 3294 1494 
z
" transform="scale(0.015625)"/>
       </defs>
       <use xlink:href="#MicrosoftYaHei-35"/>
      </g>
     </g>
    </g>
    <g id="xtick_12">
     <g id="line2d_20">
      <g>
       <use xlink:href="#mffdaa34513" x="689.008669" y="315.16" style="stroke: #000000; stroke-width: 0.8"/>
      </g>
     </g>
     <g id="text_22">
      <!-- 6 -->
      <g transform="translate(686.076638 330.15375) scale(0.1 -0.1)">
       <use xlink:href="#MicrosoftYaHei-36"/>
      </g>
     </g>
    </g>
    <g id="xtick_13">
     <g id="line2d_21">
      <g>
       <use xlink:href="#mffdaa34513" x="738.021006" y="315.16" style="stroke: #000000; stroke-width: 0.8"/>
      </g>
     </g>
     <g id="text_23">
      <!-- 7 -->
      <g transform="translate(735.088975 330.15375) scale(0.1 -0.1)">
       <defs>
        <path id="MicrosoftYaHei-37" d="M 3422 4463 
Q 2659 3131 2223 1998 
Q 1788 866 1684 0 
L 1047 0 
Q 1163 853 1594 1947 
Q 2025 3041 2747 4300 
L 347 4300 
L 347 4841 
L 3422 4841 
L 3422 4463 
z
" transform="scale(0.015625)"/>
       </defs>
       <use xlink:href="#MicrosoftYaHei-37"/>
      </g>
     </g>
    </g>
    <g id="xtick_14">
     <g id="line2d_22">
      <g>
       <use xlink:href="#mffdaa34513" x="787.033344" y="315.16" style="stroke: #000000; stroke-width: 0.8"/>
      </g>
     </g>
     <g id="text_24">
      <!-- 8 -->
      <g transform="translate(784.101313 330.15375) scale(0.1 -0.1)">
       <use xlink:href="#MicrosoftYaHei-38"/>
      </g>
     </g>
    </g>
    <g id="xtick_15">
     <g id="line2d_23">
      <g>
       <use xlink:href="#mffdaa34513" x="836.045682" y="315.16" style="stroke: #000000; stroke-width: 0.8"/>
      </g>
     </g>
     <g id="text_25">
      <!-- 9 -->
      <g transform="translate(833.113651 330.15375) scale(0.1 -0.1)">
       <defs>
        <path id="MicrosoftYaHei-39" d="M 578 656 
Q 978 425 1441 425 
Q 2091 425 2448 937 
Q 2806 1450 2806 2394 
Q 2800 2388 2794 2394 
Q 2475 1788 1722 1788 
Q 1113 1788 713 2206 
Q 313 2625 313 3294 
Q 313 4006 750 4464 
Q 1188 4922 1884 4922 
Q 2606 4922 3012 4355 
Q 3419 3788 3419 2703 
Q 3419 1363 2894 641 
Q 2369 -81 1441 -81 
Q 931 -81 578 84 
L 578 656 
z
M 931 3372 
Q 931 2884 1181 2598 
Q 1431 2313 1872 2313 
Q 2253 2313 2512 2573 
Q 2772 2834 2772 3206 
Q 2772 3728 2514 4070 
Q 2256 4413 1834 4413 
Q 1444 4413 1187 4116 
Q 931 3819 931 3372 
z
" transform="scale(0.015625)"/>
       </defs>
       <use xlink:href="#MicrosoftYaHei-39"/>
      </g>
     </g>
    </g>
    <g id="text_26">
     <!-- 出度 -->
     <g transform="translate(654.5025 344.633438) scale(0.1 -0.1)">
      <defs>
       <path id="MicrosoftYaHei-51fa" d="M 5100 2172 
L 5100 2403 
L 3456 2403 
L 3456 -47 
L 5288 -47 
L 5288 1734 
L 5813 1734 
L 5813 -747 
L 5288 -747 
L 5288 -522 
L 588 -522 
L 588 1734 
L 1119 1734 
L 1119 -47 
L 2913 -47 
L 2913 2403 
L 756 2403 
L 756 4647 
L 1288 4647 
L 1288 2878 
L 2913 2878 
L 2913 5222 
L 3456 5222 
L 3456 2878 
L 5100 2878 
L 5100 4647 
L 5631 4647 
L 5631 2172 
L 5100 2172 
z
" transform="scale(0.015625)"/>
      </defs>
      <use xlink:href="#MicrosoftYaHei-51fa"/>
      <use xlink:href="#MicrosoftYaHei-5ea6" transform="translate(100 0)"/>
     </g>
    </g>
   </g>
   <g id="matplotlib.axis_4">
    <g id="ytick_8">
     <g id="line2d_24">
      <g>
       <use xlink:href="#m7ec5cc467a" x="475.805" y="315.16" style="stroke: #000000; stroke-width: 0.8"/>
      </g>
     </g>
     <g id="text_27">
      <!-- 0.0 -->
      <g transform="translate(454.669062 319.156875) scale(0.1 -0.1)">
       <defs>
        <path id="MicrosoftYaHei-2e" d="M 372 322 
Q 372 491 487 606 
Q 603 722 775 722 
Q 950 722 1065 605 
Q 1181 488 1181 322 
Q 1181 159 1065 42 
Q 950 -75 772 -75 
Q 600 -75 486 42 
Q 372 159 372 322 
z
" transform="scale(0.015625)"/>
       </defs>
       <use xlink:href="#MicrosoftYaHei-30"/>
       <use xlink:href="#MicrosoftYaHei-2e" transform="translate(58.642578 0)"/>
       <use xlink:href="#MicrosoftYaHei-30" transform="translate(82.714844 0)"/>
      </g>
     </g>
    </g>
    <g id="ytick_9">
     <g id="line2d_25">
      <g>
       <use xlink:href="#m7ec5cc467a" x="475.805" y="277.166118" style="stroke: #000000; stroke-width: 0.8"/>
      </g>
     </g>
     <g id="text_28">
      <!-- 2.5 -->
      <g transform="translate(454.669062 281.162993) scale(0.1 -0.1)">
       <use xlink:href="#MicrosoftYaHei-32"/>
       <use xlink:href="#MicrosoftYaHei-2e" transform="translate(58.642578 0)"/>
       <use xlink:href="#MicrosoftYaHei-35" transform="translate(82.714844 0)"/>
      </g>
     </g>
    </g>
    <g id="ytick_10">
     <g id="line2d_26">
      <g>
       <use xlink:href="#m7ec5cc467a" x="475.805" y="239.172235" style="stroke: #000000; stroke-width: 0.8"/>
      </g>
     </g>
     <g id="text_29">
      <!-- 5.0 -->
      <g transform="translate(454.669062 243.16911) scale(0.1 -0.1)">
       <use xlink:href="#MicrosoftYaHei-35"/>
       <use xlink:href="#MicrosoftYaHei-2e" transform="translate(58.642578 0)"/>
       <use xlink:href="#MicrosoftYaHei-30" transform="translate(82.714844 0)"/>
      </g>
     </g>
    </g>
    <g id="ytick_11">
     <g id="line2d_27">
      <g>
       <use xlink:href="#m7ec5cc467a" x="475.805" y="201.178353" style="stroke: #000000; stroke-width: 0.8"/>
      </g>
     </g>
     <g id="text_30">
      <!-- 7.5 -->
      <g transform="translate(454.669062 205.175228) scale(0.1 -0.1)">
       <use xlink:href="#MicrosoftYaHei-37"/>
       <use xlink:href="#MicrosoftYaHei-2e" transform="translate(58.642578 0)"/>
       <use xlink:href="#MicrosoftYaHei-35" transform="translate(82.714844 0)"/>
      </g>
     </g>
    </g>
    <g id="ytick_12">
     <g id="line2d_28">
      <g>
       <use xlink:href="#m7ec5cc467a" x="475.805" y="163.184471" style="stroke: #000000; stroke-width: 0.8"/>
      </g>
     </g>
     <g id="text_31">
      <!-- 10.0 -->
      <g transform="translate(448.805 167.181346) scale(0.1 -0.1)">
       <use xlink:href="#MicrosoftYaHei-31"/>
       <use xlink:href="#MicrosoftYaHei-30" transform="translate(58.642578 0)"/>
       <use xlink:href="#MicrosoftYaHei-2e" transform="translate(117.285156 0)"/>
       <use xlink:href="#MicrosoftYaHei-30" transform="translate(141.357422 0)"/>
      </g>
     </g>
    </g>
    <g id="ytick_13">
     <g id="line2d_29">
      <g>
       <use xlink:href="#m7ec5cc467a" x="475.805" y="125.190589" style="stroke: #000000; stroke-width: 0.8"/>
      </g>
     </g>
     <g id="text_32">
      <!-- 12.5 -->
      <g transform="translate(448.805 129.187464) scale(0.1 -0.1)">
       <use xlink:href="#MicrosoftYaHei-31"/>
       <use xlink:href="#MicrosoftYaHei-32" transform="translate(58.642578 0)"/>
       <use xlink:href="#MicrosoftYaHei-2e" transform="translate(117.285156 0)"/>
       <use xlink:href="#MicrosoftYaHei-35" transform="translate(141.357422 0)"/>
      </g>
     </g>
    </g>
    <g id="ytick_14">
     <g id="line2d_30">
      <g>
       <use xlink:href="#m7ec5cc467a" x="475.805" y="87.196706" style="stroke: #000000; stroke-width: 0.8"/>
      </g>
     </g>
     <g id="text_33">
      <!-- 15.0 -->
      <g transform="translate(448.805 91.193581) scale(0.1 -0.1)">
       <use xlink:href="#MicrosoftYaHei-31"/>
       <use xlink:href="#MicrosoftYaHei-35" transform="translate(58.642578 0)"/>
       <use xlink:href="#MicrosoftYaHei-2e" transform="translate(117.285156 0)"/>
       <use xlink:href="#MicrosoftYaHei-30" transform="translate(141.357422 0)"/>
      </g>
     </g>
    </g>
    <g id="ytick_15">
     <g id="line2d_31">
      <g>
       <use xlink:href="#m7ec5cc467a" x="475.805" y="49.202824" style="stroke: #000000; stroke-width: 0.8"/>
      </g>
     </g>
     <g id="text_34">
      <!-- 17.5 -->
      <g transform="translate(448.805 53.199699) scale(0.1 -0.1)">
       <use xlink:href="#MicrosoftYaHei-31"/>
       <use xlink:href="#MicrosoftYaHei-37" transform="translate(58.642578 0)"/>
       <use xlink:href="#MicrosoftYaHei-2e" transform="translate(117.285156 0)"/>
       <use xlink:href="#MicrosoftYaHei-35" transform="translate(141.357422 0)"/>
      </g>
     </g>
    </g>
    <g id="text_35">
     <!-- 频数 -->
     <g transform="translate(442.319062 181.543125) rotate(-90) scale(0.1 -0.1)">
      <use xlink:href="#MicrosoftYaHei-9891"/>
      <use xlink:href="#MicrosoftYaHei-6570" transform="translate(100 0)"/>
     </g>
    </g>
   </g>
   <g id="line2d_32">
    <path d="M 492.959318 294.835762 
L 499.855526 291.327173 
L 506.751735 287.517199 
L 513.647943 283.419848 
L 520.544151 279.059945 
L 529.164412 273.301175 
L 541.232776 264.880285 
L 553.301141 256.508245 
L 560.197349 252.025309 
L 565.369505 248.933991 
L 570.541662 246.15749 
L 573.989766 244.516596 
L 577.43787 243.065924 
L 580.885974 241.821395 
L 584.334078 240.795359 
L 587.782183 239.995932 
L 591.230287 239.426498 
L 594.678391 239.085416 
L 598.126495 238.965957 
L 601.574599 239.056483 
L 605.022703 239.340866 
L 608.470807 239.799114 
L 613.642964 240.761443 
L 618.81512 241.976817 
L 625.711328 243.837506 
L 641.227797 248.135943 
L 648.124005 249.810707 
L 655.020214 251.274234 
L 663.640474 252.852929 
L 684.329099 256.43389 
L 691.225307 257.899185 
L 698.121516 259.624702 
L 705.017724 261.645463 
L 711.913932 263.969146 
L 718.81014 266.580925 
L 725.706349 269.449006 
L 734.326609 273.324946 
L 746.394974 279.081934 
L 760.18739 285.643373 
L 767.083599 288.701825 
L 773.979807 291.495475 
L 779.151963 293.375759 
L 784.324119 295.051083 
L 789.496276 296.514484 
L 794.668432 297.770593 
L 799.840588 298.835283 
L 806.736796 300.002729 
L 815.357057 301.173165 
L 836.045682 303.657297 
L 836.045682 303.657297 
" clip-path="url(#p76e8a9686e)" style="fill: none; stroke: #fa8072; stroke-width: 1.5; stroke-linecap: square"/>
   </g>
   <g id="patch_48">
    <path d="M 475.805 315.16 
L 475.805 27.92625 
" style="fill: none; stroke: #000000; stroke-width: 0.8; stroke-linejoin: miter; stroke-linecap: square"/>
   </g>
   <g id="patch_49">
    <path d="M 853.2 315.16 
L 853.2 27.92625 
" style="fill: none; stroke: #000000; stroke-width: 0.8; stroke-linejoin: miter; stroke-linecap: square"/>
   </g>
   <g id="patch_50">
    <path d="M 475.805 315.16 
L 853.2 315.16 
" style="fill: none; stroke: #000000; stroke-width: 0.8; stroke-linejoin: miter; stroke-linecap: square"/>
   </g>
   <g id="patch_51">
    <path d="M 475.805 27.92625 
L 853.2 27.92625 
" style="fill: none; stroke: #000000; stroke-width: 0.8; stroke-linejoin: miter; stroke-linecap: square"/>
   </g>
   <g id="text_36">
    <!-- 出度分布 -->
    <g transform="translate(636.5025 21.92625) scale(0.14 -0.14)">
     <defs>
      <path id="SimHei-51fa" d="M 1475 4550 
Q 1450 4225 1450 3950 
L 1450 2950 
L 2925 2950 
L 2925 4425 
Q 2925 4775 2900 5125 
L 3425 5125 
Q 3400 4825 3400 4425 
L 3400 2950 
L 4900 2950 
L 4900 3875 
Q 4900 4275 4875 4525 
L 5400 4525 
Q 5375 4275 5375 3850 
L 5375 3175 
Q 5375 2775 5400 2525 
L 3400 2525 
L 3400 225 
L 5125 225 
L 5125 1275 
Q 5125 1650 5100 1925 
L 5625 1925 
Q 5600 1650 5600 1300 
L 5600 175 
Q 5600 -325 5625 -650 
L 5125 -650 
L 5125 -200 
L 675 -200 
Q 700 100 700 525 
L 700 1275 
Q 700 1700 675 1950 
L 1200 1950 
Q 1175 1700 1175 1275 
L 1175 225 
L 2925 225 
L 2925 2525 
L 950 2525 
Q 975 2775 975 3150 
L 975 3925 
Q 975 4250 950 4550 
L 1475 4550 
z
" transform="scale(0.015625)"/>
     </defs>
     <use xlink:href="#SimHei-51fa"/>
     <use xlink:href="#SimHei-5ea6" transform="translate(100 0)"/>
     <use xlink:href="#SimHei-5206" transform="translate(200 0)"/>
     <use xlink:href="#SimHei-5e03" transform="translate(300 0)"/>
    </g>
   </g>
  </g>
 </g>
 <defs>
  <clipPath id="p84f7989286">
   <rect x="45.11" y="27.92625" width="377.395" height="287.23375"/>
  </clipPath>
  <clipPath id="p76e8a9686e">
   <rect x="475.805" y="27.92625" width="377.395" height="287.23375"/>
  </clipPath>
 </defs>
</svg>
